<?xml version="1.0" encoding="UTF-8"?>
<svg version="1.1" xmlns="http://www.w3.org/2000/svg" width="256" height="256">
<path d="M0 0 C84.48 0 168.96 0 256 0 C256 84.48 256 168.96 256 256 C171.52 256 87.04 256 0 256 C0 171.52 0 87.04 0 0 Z " fill="#FEF2EC" transform="translate(0,0)"/>
<path d="M0 0 C0.9684082 0.15484863 1.93681641 0.30969727 2.93457031 0.46923828 C3.94487305 0.64052246 4.95517578 0.81180664 5.99609375 0.98828125 C7.0644043 1.16472168 8.13271484 1.34116211 9.23339844 1.52294922 C17.23977207 2.87059138 25.21773433 4.35723698 33.18359375 5.92578125 C34.7624939 6.234552 34.7624939 6.234552 36.37329102 6.54956055 C37.35740967 6.748479 38.34152832 6.94739746 39.35546875 7.15234375 C40.64855957 7.41265381 40.64855957 7.41265381 41.96777344 7.67822266 C44.6085174 8.34494514 46.98450223 9.10300737 49.43359375 10.30078125 C50.24609375 12.92578125 50.24609375 12.92578125 50.43359375 15.30078125 C49.44359375 15.63078125 48.45359375 15.96078125 47.43359375 16.30078125 C47.32517424 18.21619263 47.24781296 20.13337898 47.18359375 22.05078125 C47.1371875 23.118125 47.09078125 24.18546875 47.04296875 25.28515625 C47.5199752 28.96764604 48.70280917 29.91403253 51.43359375 32.30078125 C51.43359375 32.96078125 51.43359375 33.62078125 51.43359375 34.30078125 C53.74359375 34.96078125 56.05359375 35.62078125 58.43359375 36.30078125 C58.76359375 37.95078125 59.09359375 39.60078125 59.43359375 41.30078125 C58.11359375 41.63078125 56.79359375 41.96078125 55.43359375 42.30078125 C55.40655994 44.23820466 55.3871825 46.17573604 55.37109375 48.11328125 C55.35369141 49.73169922 55.35369141 49.73169922 55.3359375 51.3828125 C55.29734609 54.36590294 55.29734609 54.36590294 56.43359375 57.30078125 C58.43375841 58.50960221 58.43375841 58.50960221 60.43359375 59.30078125 C60.18359375 61.17578125 60.18359375 61.17578125 59.43359375 63.30078125 C57.43359375 64.42578125 57.43359375 64.42578125 55.43359375 65.30078125 C54.20354394 67.76088088 54.30045348 69.43250931 54.30859375 72.17578125 C54.30601562 73.03945312 54.3034375 73.903125 54.30078125 74.79296875 C54.42605327 77.15839927 54.57218012 79.09279 55.43359375 81.30078125 C56.42359375 81.63078125 57.41359375 81.96078125 58.43359375 82.30078125 C58.36694336 84.5637207 58.36694336 84.5637207 57.43359375 87.30078125 C55.09559745 88.83651825 53.02519184 89.96014156 50.5 91.09375 C49.43091148 91.59976997 49.43091148 91.59976997 48.34022522 92.11601257 C46.04610179 93.19600072 43.74079376 94.24906082 41.43359375 95.30078125 C39.93805665 95.9969593 38.44309598 96.69437706 36.94873047 97.39306641 C33.19416165 99.14101252 29.42863743 100.8636323 25.6574707 102.57543945 C23.33995207 103.62741721 21.02432748 104.68347807 18.70898438 105.74023438 C17.20974057 106.42340789 15.71039539 107.10635899 14.2109375 107.7890625 C13.53167709 108.09846268 12.85241669 108.40786285 12.15257263 108.72663879 C10.86300575 109.31178431 9.57114421 109.89190426 8.27682495 110.46646118 C6.48223493 111.27876431 4.71416535 112.14887525 2.94750977 113.02026367 C-6.28979692 116.38646068 -14.43908709 112.75629089 -23.3203125 109.8125 C-24.74912326 109.34793186 -26.17824186 108.88430957 -27.60765076 108.42158508 C-30.59293295 107.45260568 -33.57560489 106.47611337 -36.55639648 105.4934082 C-40.3613304 104.23906792 -44.17034711 102.9977642 -47.98114109 101.7613554 C-51.63731922 100.57451975 -55.29139899 99.38128586 -58.9453125 98.1875 C-59.63427675 97.96296331 -60.323241 97.73842663 -61.03308296 97.5070858 C-63.00051567 96.86457409 -64.96640489 96.21754935 -66.93188477 95.5690918 C-68.60445091 95.01949043 -68.60445091 95.01949043 -70.31080627 94.45878601 C-81.27324182 90.5594886 -81.27324182 90.5594886 -83.56640625 87.30078125 C-85.82228471 82.1953721 -86.84223511 76.70069276 -84.84375 71.375 C-82.75387064 67.42368963 -80.20836091 64.82991643 -76.56640625 62.30078125 C-76.85515625 61.80449219 -77.14390625 61.30820313 -77.44140625 60.796875 C-79.98921343 56.13474172 -81.28459317 52.73848221 -80.56640625 47.30078125 C-79.04648521 44.11618479 -77.28344666 41.56498159 -74.56640625 39.30078125 C-73.08140625 38.80578125 -73.08140625 38.80578125 -71.56640625 38.30078125 C-72.22640625 37.64078125 -72.88640625 36.98078125 -73.56640625 36.30078125 C-76.12864101 32.45742911 -76.30755569 29.79342787 -75.56640625 25.30078125 C-73.37423665 20.06393164 -69.27430579 16.4760129 -64.12634277 14.24179077 C-61.1615295 13.19340855 -58.18136263 12.23759382 -55.17578125 11.3125 C-54.07598938 10.96443802 -52.97619751 10.61637604 -51.84307861 10.25776672 C-49.52208335 9.52741013 -47.19883603 8.80417672 -44.87353516 8.08764648 C-41.33575649 6.99426163 -37.80851286 5.87092566 -34.28125 4.74414062 C-32.01749759 4.03593424 -29.75319123 3.32949559 -27.48828125 2.625 C-26.44315369 2.2907048 -25.39802612 1.95640961 -24.32122803 1.61198425 C-16.00565518 -0.91519188 -8.58396145 -1.39411808 0 0 Z " fill="#E18F7F" transform="translate(138.56640625,69.69921875)"/>
<path d="M0 0 C0.96881104 0.15500977 1.93762207 0.31001953 2.93579102 0.46972656 C4.45064087 0.72641113 4.45064087 0.72641113 5.99609375 0.98828125 C7.06077881 1.16327148 8.12546387 1.33826172 9.22241211 1.51855469 C21.01404109 3.49633834 32.72981039 5.86217944 44.43359375 8.30078125 C44.10359375 9.29078125 43.77359375 10.28078125 43.43359375 11.30078125 C44.75359375 11.63078125 46.07359375 11.96078125 47.43359375 12.30078125 C46.77359375 12.96078125 46.11359375 13.62078125 45.43359375 14.30078125 C43.66780853 20.12787248 43.97571002 26.46924632 45.43359375 32.30078125 C42.13359375 33.62078125 38.83359375 34.94078125 35.43359375 36.30078125 C39.77823911 35.6925309 44.10911242 35.03910733 48.43359375 34.30078125 C45.78184309 36.42099213 43.35487745 37.89773045 40.1875 39.11010742 C39.35984131 39.43021286 38.53218262 39.7503183 37.67944336 40.0801239 C36.79393799 40.41462051 35.90843262 40.74911713 34.99609375 41.09375 C34.07900635 41.44464188 33.16191895 41.79553375 32.21704102 42.15705872 C30.28164596 42.8955631 28.34500833 43.63081818 26.40722656 44.36303711 C23.44084654 45.48553674 20.48005236 46.62191672 17.51953125 47.75976562 C15.63703859 48.47610149 13.7542362 49.19162407 11.87109375 49.90625 C10.98558838 50.24681931 10.10008301 50.58738861 9.18774414 50.9382782 C8.36008545 51.24892715 7.53242676 51.55957611 6.6796875 51.87963867 C5.59192017 52.29242317 5.59192017 52.29242317 4.48217773 52.71354675 C2.43359375 53.30078125 2.43359375 53.30078125 -1.56640625 53.30078125 C-1.56640625 52.31078125 -1.56640625 51.32078125 -1.56640625 50.30078125 C-2.33984375 50.54828125 -2.33984375 50.54828125 -3.12890625 50.80078125 C-6.30004501 51.45127125 -9.33858959 51.36285465 -12.56640625 51.30078125 C-12.56640625 51.96078125 -12.56640625 52.62078125 -12.56640625 53.30078125 C-11.80328125 53.44515625 -11.04015625 53.58953125 -10.25390625 53.73828125 C-7.56640625 54.30078125 -7.56640625 54.30078125 -4.56640625 55.30078125 C1.73831549 55.86155701 6.47169483 54.14895886 12.24609375 51.92578125 C13.18445068 51.57652588 14.12280762 51.22727051 15.08959961 50.86743164 C20.57915583 48.81215975 26.03325992 46.67251837 31.48046875 44.5078125 C32.64860107 44.04745605 33.8167334 43.58709961 35.02026367 43.11279297 C37.30655152 42.20868392 39.58816601 41.29265055 41.86450195 40.36376953 C42.90952881 39.94981934 43.95455566 39.53586914 45.03125 39.109375 C45.95429932 38.73611084 46.87734863 38.36284668 47.82836914 37.97827148 C50.75715351 37.21663934 52.5499568 37.48325699 55.43359375 38.30078125 C52.55314898 41.18122602 48.98271091 42.15807318 45.234375 43.56640625 C44.40713425 43.88228699 43.57989349 44.19816772 42.72758484 44.52362061 C40.06898324 45.53773747 37.40768029 46.54452765 34.74609375 47.55078125 C32.14012939 48.54087825 29.53476054 49.53251238 26.92990112 50.5255127 C25.21875605 51.17680867 23.50661713 51.82549959 21.79348755 52.47155762 C17.85077325 53.96435092 13.93645698 55.49084468 10.06396484 57.15820312 C9.39052536 57.44411316 8.71708588 57.73002319 8.02323914 58.02459717 C6.23786636 58.78927695 4.460712 59.57306762 2.68432617 60.35839844 C-2.900094 61.97731409 -8.35101321 60.19820192 -13.8972168 58.85791016 C-15.10504318 58.56735748 -16.31286957 58.27680481 -17.55729675 57.97744751 C-18.8559929 57.6611021 -20.15460029 57.34439211 -21.453125 57.02734375 C-22.80116847 56.699638 -24.14921644 56.37195072 -25.49726868 56.04428101 C-28.31107011 55.3592424 -31.12410939 54.67116177 -33.93676758 53.98144531 C-37.53582876 53.09957438 -41.13768119 52.22971925 -44.74032879 51.36263466 C-47.5206034 50.69129352 -50.29874168 50.0114257 -53.07636452 49.32920456 C-54.40363245 49.00473372 -55.73167408 48.68341041 -57.06049156 48.365345 C-58.91710543 47.92005595 -60.77052792 47.46152389 -62.6237793 47.00244141 C-63.67744186 46.74564606 -64.73110443 46.48885071 -65.81669617 46.22427368 C-68.58415547 45.29482016 -70.36194002 44.18723147 -72.56640625 42.30078125 C-71.08140625 41.80578125 -71.08140625 41.80578125 -69.56640625 41.30078125 C-69.56640625 40.64078125 -69.56640625 39.98078125 -69.56640625 39.30078125 C-68.57640625 38.80578125 -68.57640625 38.80578125 -67.56640625 38.30078125 C-69.4114158 36.08337144 -69.4114158 36.08337144 -72.12890625 35.80078125 C-72.93328125 35.63578125 -73.73765625 35.47078125 -74.56640625 35.30078125 C-76.1653354 32.10292295 -75.92903271 28.77930912 -75.56640625 25.30078125 C-73.37423665 20.06393164 -69.27430579 16.4760129 -64.12634277 14.24179077 C-61.1615295 13.19340855 -58.18136263 12.23759382 -55.17578125 11.3125 C-54.07598938 10.96443802 -52.97619751 10.61637604 -51.84307861 10.25776672 C-49.52208335 9.52741013 -47.19883603 8.80417672 -44.87353516 8.08764648 C-41.33575649 6.99426163 -37.80851286 5.87092566 -34.28125 4.74414062 C-32.01749759 4.03593424 -29.75319123 3.32949559 -27.48828125 2.625 C-26.44315369 2.2907048 -25.39802612 1.95640961 -24.32122803 1.61198425 C-16.00565518 -0.91519188 -8.58396145 -1.39411808 0 0 Z " fill="#E19080" transform="translate(138.56640625,69.69921875)"/>
<path d="M0 0 C0.495 7.425 0.495 7.425 1 15 C-0.11858398 15.45850342 -1.23716797 15.91700684 -2.38964844 16.3894043 C-6.59438054 18.11301578 -10.79892548 19.83708342 -15.00341797 21.5612793 C-16.81293834 22.30326307 -18.62250746 23.04512799 -20.43212891 23.78686523 C-25.54249821 25.88157991 -30.65169835 27.97910126 -35.75952148 30.08001709 C-37.78438183 30.91146309 -39.81084377 31.73884484 -41.83789062 32.56494141 C-43.44180664 33.22308838 -43.44180664 33.22308838 -45.078125 33.89453125 C-45.9743457 34.2603833 -46.87056641 34.62623535 -47.79394531 35.00317383 C-50.21190848 36.02364055 -50.21190848 36.02364055 -53 38 C-47.89041961 37.38718969 -43.67618077 35.80608392 -38.99609375 33.796875 C-38.23635757 33.47720764 -37.4766214 33.15754028 -36.69386292 32.82818604 C-34.27246528 31.80817695 -31.85485233 30.77955487 -29.4375 29.75 C-11.39858913 22.1082245 -11.39858913 22.1082245 -3.47265625 18.953125 C-2.4556665 18.54739258 -1.43867676 18.14166016 -0.39086914 17.72363281 C2 17 2 17 4 18 C-6.28432495 22.87764325 -16.73135374 27.28390296 -27.25 31.625 C-29.63327825 32.61044974 -32.01623047 33.59666941 -34.39855957 34.58441162 C-35.91882912 35.21417315 -37.43989188 35.84202369 -38.96179199 36.46783447 C-42.73800714 38.0272695 -46.43513339 39.67104345 -50.109375 41.4609375 C-56.77718255 44.44439447 -62.8264089 43.1038915 -69.5625 40.75 C-70.97438326 40.2824988 -72.38716744 39.8177108 -73.80078125 39.35546875 C-74.50541504 39.1239209 -75.21004883 38.89237305 -75.93603516 38.65380859 C-79.01273881 37.67919156 -82.12579143 36.8699563 -85.25 36.0625 C-92.09274207 34.27775101 -98.85552042 32.27436824 -105.62304688 30.22436523 C-112.72791332 28.07323071 -119.85428943 26.01120993 -127 24 C-126.34 23.34 -125.68 22.68 -125 22 C-123.12035649 22.16782531 -121.240018 22.35264428 -119.375 22.640625 C-116.75487969 23.03709057 -114.1375023 23.30774126 -111.5 23.5625 C-110.6440625 23.64628906 -109.788125 23.73007813 -108.90625 23.81640625 C-107.96265625 23.90728516 -107.96265625 23.90728516 -107 24 C-110.47709478 21.68193681 -113.60777378 20.96891302 -117.625 19.9765625 C-120.5531966 18.77253429 -121.5186763 17.78894169 -123 15 C-123.29296875 12.203125 -123.29296875 12.203125 -123.1875 9.25 C-123.16042969 8.26515625 -123.13335937 7.2803125 -123.10546875 6.265625 C-123.07066406 5.51796875 -123.03585938 4.7703125 -123 4 C-109.74112614 6.01956357 -96.61409378 9.43081442 -83.72998047 13.11303711 C-74.87778578 15.63468617 -65.93829857 17.8074111 -57 20 C-57.33 23.3 -57.66 26.6 -58 30 C-57.79375 28.824375 -57.5875 27.64875 -57.375 26.4375 C-55.44350357 21.42795674 -51.94329733 19.79115089 -47.23828125 17.58032227 C-40.23654362 14.49333628 -32.97016964 12.0797612 -25.7265625 9.6328125 C-20.88828517 7.98799059 -16.1905289 6.08401455 -11.49609375 4.06640625 C-1.97802198 0 -1.97802198 0 0 0 Z " fill="#E39181" transform="translate(191,113)"/>
<path d="M0 0 C1.78369775 0.32118239 3.56755129 0.64150085 5.3515625 0.9609375 C8.74377946 1.5694235 12.13418575 2.18674485 15.5234375 2.81152344 C18.23437244 3.30962206 20.94383385 3.78020935 23.6640625 4.22753906 C24.66179687 4.3922168 25.65953125 4.55689453 26.6875 4.7265625 C27.51636719 4.85627441 28.34523438 4.98598633 29.19921875 5.11962891 C29.79347656 5.28640137 30.38773437 5.45317383 31 5.625 C31.495 6.615 31.495 6.615 32 7.625 C31.22100342 7.89127197 30.44200684 8.15754395 29.6394043 8.43188477 C26.6558128 9.45292827 23.67308805 10.47646711 20.69064331 11.50085449 C18.68861208 12.1871188 16.68529635 12.86953522 14.68188477 13.55175781 C8.82639069 15.55403571 2.9958942 17.57405145 -2.734375 19.91796875 C-3.56412842 20.25175537 -4.39388184 20.58554199 -5.2487793 20.92944336 C-6.72931512 21.53449931 -8.20089377 22.16227348 -9.65942383 22.81860352 C-16.06396071 25.40950532 -21.41248946 24.08746004 -28 22.625 C-30.27073289 22.16877064 -32.54156937 21.71305659 -34.8125 21.2578125 C-37.2087882 20.75738151 -39.6046104 20.25471473 -42 19.75 C-44.54546216 19.21821958 -47.09103581 18.68697255 -49.63671875 18.15625 C-51.49949463 17.76759766 -51.49949463 17.76759766 -53.39990234 17.37109375 C-61.25725577 15.74271507 -69.12840567 14.18282426 -77 12.625 C-76 10.625 -76 10.625 -74.13330078 9.91064453 C-73.32876465 9.69520996 -72.52422852 9.47977539 -71.6953125 9.2578125 C-70.80714844 9.01401855 -69.91898437 8.77022461 -69.00390625 8.51904297 C-68.05386719 8.26525879 -67.10382813 8.01147461 -66.125 7.75 C-59.48559146 5.92016301 -52.97973221 3.99869662 -46.53125 1.5703125 C-43.53621283 0.45179553 -40.53249264 -0.61180736 -37.5 -1.625 C-36.5203125 -1.96015625 -35.540625 -2.2953125 -34.53125 -2.640625 C-22.96462256 -5.04607407 -11.41150136 -2.10048006 0 0 Z " fill="#FEC6BB" transform="translate(154,75.375)"/>
<path d="M0 0 C2.375 -0.125 2.375 -0.125 5 0 C7 2 7 2 7 6 C6.01 6.33 5.02 6.66 4 7 C3.89158049 8.91541138 3.81421921 10.83259773 3.75 12.75 C3.70359375 13.81734375 3.6571875 14.8846875 3.609375 15.984375 C4.08638145 19.66686479 5.26921542 20.61325128 8 23 C8 23.66 8 24.32 8 25 C10.31 25.66 12.62 26.32 15 27 C15.33 28.65 15.66 30.3 16 32 C14.68 32.33 13.36 32.66 12 33 C11.97296619 34.93742341 11.95358875 36.87495479 11.9375 38.8125 C11.92009766 40.43091797 11.92009766 40.43091797 11.90234375 42.08203125 C11.86375234 45.06512169 11.86375234 45.06512169 13 48 C15.00016466 49.20882096 15.00016466 49.20882096 17 50 C16.75 51.875 16.75 51.875 16 54 C14 55.125 14 55.125 12 56 C10.76995019 58.46009963 10.86685973 60.13172806 10.875 62.875 C10.87242187 63.73867187 10.86984375 64.60234375 10.8671875 65.4921875 C10.99245952 67.85761802 11.13858637 69.79200875 12 72 C12.99 72.33 13.98 72.66 15 73 C14.67 73.99 14.34 74.98 14 76 C14 75.34 14 74.68 14 74 C11.03 74.495 11.03 74.495 8 75 C7.0828712 69.61186828 6.90983192 64.45836365 7 59 C-5.07405573 63.42998301 -16.96283572 68.22984917 -28.82446289 73.19726562 C-31.02876054 74.1191626 -33.23497733 75.03634309 -35.44140625 75.953125 C-36.09879288 76.23021301 -36.7561795 76.50730103 -37.43348694 76.79278564 C-40.54973781 78.0856916 -43.62313003 79.20459427 -46.88256836 80.05761719 C-50.10516676 80.6741425 -50.10516676 80.6741425 -51.4375 83.125 C-52.44140508 88.25607041 -53.04284443 93.43573336 -50 98 C-45.48477793 97.07983626 -41.58105827 94.96024543 -37.4609375 92.9609375 C-36.64882812 92.64382812 -35.83671875 92.32671875 -35 92 C-34.34 92.33 -33.68 92.66 -33 93 C-36.11200444 97.66800665 -40.77816512 99.24500315 -46 101 C-48.86394003 101.26311817 -50.21097248 100.94945618 -53 100 C-55.44503999 96.33244001 -55.26831152 94.42521863 -55.25 90.0625 C-55.25773437 88.22365234 -55.25773437 88.22365234 -55.265625 86.34765625 C-55.02083557 83.26258948 -54.62728656 81.57653706 -53 79 C-53.62648438 78.86722656 -54.25296875 78.73445313 -54.8984375 78.59765625 C-55.71570313 78.42105469 -56.53296875 78.24445313 -57.375 78.0625 C-58.18710938 77.88847656 -58.99921875 77.71445313 -59.8359375 77.53515625 C-62 77 -62 77 -64 76 C-64 75.34 -64 74.68 -64 74 C-56.375 74.875 -56.375 74.875 -53 76 C-45.14535331 76.90387189 -39.37213579 73.96143443 -32.3125 70.75 C-30.47071755 69.93531807 -28.6289088 69.12069124 -26.78579712 68.309021 C-25.50607951 67.74511374 -24.22709527 67.17953947 -22.94882202 66.61236572 C-15.60391933 63.35970331 -8.17923392 60.30378763 -0.75 57.25 C0.53611336 56.71987677 1.8221664 56.18960719 3.1081543 55.65917969 C6.07140743 54.43775169 9.03532933 53.21798227 12 52 C4.02481183 54.69173874 -3.76734519 57.67371114 -11.50390625 60.98828125 C-12.32313568 61.33889618 -13.14236511 61.68951111 -13.98641968 62.05075073 C-17.37931341 63.50682995 -20.76977753 64.96832788 -24.15649414 66.4387207 C-26.66481227 67.52565065 -29.1776888 68.60140954 -31.69140625 69.67578125 C-32.45288467 70.01007645 -33.2143631 70.34437164 -33.99891663 70.688797 C-37.80434474 72.30729416 -40.77533961 73.44313891 -45 73 C-41.77051244 69.23984067 -38.21673337 67.54050976 -33.69921875 65.7578125 C-32.98578812 65.4669577 -32.27235748 65.17610291 -31.53730774 64.87643433 C-29.25777037 63.94974066 -26.97286538 63.03721247 -24.6875 62.125 C-23.19428755 61.52045398 -21.70144526 60.91499282 -20.20898438 60.30859375 C-16.53537446 58.81866005 -12.85593837 57.34375576 -9.17474365 55.87268066 C-6.98680487 54.99470506 -4.80282303 54.10747484 -2.61962891 53.21777344 C-1.92835403 52.93739227 -1.23707916 52.65701111 -0.52485657 52.36813354 C1.36588998 51.60116557 3.25561061 50.83166989 5.14526367 50.06201172 C8 49 8 49 10 49 C9.67 48.34 9.34 47.68 9 47 C8.77141886 44.9625237 8.58975722 42.91959697 8.4375 40.875 C8.35371094 39.77929688 8.26992187 38.68359375 8.18359375 37.5546875 C8.12300781 36.71164063 8.06242188 35.86859375 8 35 C5.0407683 36.08088968 2.08279316 37.16518065 -0.875 38.25 C-1.69742188 38.55035156 -2.51984375 38.85070312 -3.3671875 39.16015625 C-9.28946367 41.33474203 -15.14973082 43.63950417 -21 46 C-22.73658117 46.69110509 -24.47356355 47.38120283 -26.2109375 48.0703125 C-27.06300781 48.40933594 -27.91507812 48.74835938 -28.79296875 49.09765625 C-30.53724124 49.79167087 -32.28204731 50.48434569 -34.02734375 51.17578125 C-34.87167969 51.51222656 -35.71601563 51.84867188 -36.5859375 52.1953125 C-37.71588135 52.64414795 -37.71588135 52.64414795 -38.86865234 53.10205078 C-43.05139495 54.70169363 -43.05139495 54.70169363 -46.1875 57.6875 C-47.26385267 60.7509653 -47.62879105 63.78285575 -48 67 C-50.32536063 63.51195905 -50.33457898 62.09859246 -50 58 C-49 55.625 -49 55.625 -48 54 C-49.56234375 53.85498047 -49.56234375 53.85498047 -51.15625 53.70703125 C-57.39271669 52.92473281 -63.42217093 51.24940702 -69.5 49.6875 C-72.013009 49.04943258 -74.52602976 48.41141144 -77.0390625 47.7734375 C-78.24208008 47.46631836 -79.44509766 47.15919922 -80.68457031 46.84277344 C-84.10808762 45.97252441 -87.53622107 45.12334578 -90.96679688 44.28149414 C-98.7040897 42.37983862 -106.35653881 40.24526672 -114 38 C-114.33 40.64 -114.66 43.28 -115 46 C-115.33 46 -115.66 46 -116 46 C-116.33 43.03 -116.66 40.06 -117 37 C-118.65 37 -120.3 37 -122 37 C-121.4376049 33.73810844 -120.5859495 32.08865152 -118 30 C-117.01 29.67 -116.02 29.34 -115 29 C-115.33 28.01 -115.66 27.02 -116 26 C-113.13275314 26.57344937 -112.1385485 26.8614515 -110 29 C-110.99 29.33 -111.98 29.66 -113 30 C-113 30.66 -113 31.32 -113 32 C-113.99 32.495 -113.99 32.495 -115 33 C-108.5974457 36.07243677 -101.97755078 37.65476583 -95.09375 39.3203125 C-93.85508179 39.62444061 -92.61641357 39.92856873 -91.34020996 40.24191284 C-88.72860082 40.88177641 -86.11656149 41.51932029 -83.50341797 42.15283203 C-80.16995782 42.9611348 -76.83860212 43.77773893 -73.50786591 44.59718513 C-70.30822719 45.38358185 -67.10721384 46.16433 -63.90625 46.9453125 C-62.71753296 47.23697296 -61.52881592 47.52863342 -60.30407715 47.82913208 C-57.20794674 48.57828855 -54.10648336 49.29527177 -51 50 C-49.76846191 50.29455078 -48.53692383 50.58910156 -47.26806641 50.89257812 C-42.60362202 51.04589917 -39.07114095 49.53981159 -34.8046875 47.7734375 C-33.93538605 47.4287442 -33.06608459 47.0840509 -32.17044067 46.72891235 C-29.39895046 45.6260829 -26.63707814 44.50116713 -23.875 43.375 C-22.04227089 42.6404178 -20.20894187 41.90733046 -18.375 41.17578125 C-14.84830677 39.76724784 -11.32481687 38.35115002 -7.80371094 36.92871094 C-1.89616169 34.54795191 4.0438463 32.25647387 10 30 C6.60771336 28.86923779 6.08661969 29.08438606 2.89916992 30.32348633 C2.07789108 30.63743851 1.25661224 30.95139069 0.41044617 31.27485657 C-0.47394638 31.62372421 -1.35833893 31.97259186 -2.26953125 32.33203125 C-3.18329025 32.68383957 -4.09704926 33.03564789 -5.03849792 33.39811707 C-7.96663477 34.52750358 -10.88960822 35.66961593 -13.8125 36.8125 C-16.72568625 37.9419162 -19.63986494 39.06873227 -22.55436707 40.19474792 C-24.36844811 40.89668449 -26.18157435 41.60109507 -27.99360657 42.30830383 C-38.43300915 46.37240599 -45.31653099 48.49830274 -56 44 C-56 43.34 -56 42.68 -56 42 C-52.37 41.67 -48.74 41.34 -45 41 C-45 41.99 -45 42.98 -45 44 C-28.7869061 38.52714688 -12.88928501 32.33815107 3 26 C2.07960938 26.32742187 1.15921875 26.65484375 0.2109375 26.9921875 C-3.05780017 28.01814166 -5.60001253 28.16190417 -9 28 C-6.64264116 25.27042661 -4.41866474 24.11106604 -1 23 C-0.01 23 0.98 23 2 23 C1.67515625 22.43023437 1.3503125 21.86046875 1.015625 21.2734375 C-1.10055841 16.53644232 -0.37269825 11.39140679 0.9375 6.5 C2 4 2 4 3 3 C2.01 2.67 1.02 2.34 0 2 C0 1.34 0 0.68 0 0 Z " fill="#DF8C7C" transform="translate(182,79)"/>
<path d="M0 0 C3.86606974 0.2697258 5.79177189 0.84493651 8.9375 3.1875 C11 6 11 6 11.375 8.875 C9.02499525 14.2159199 4.20266817 17.68057046 -1.15234375 19.88671875 C-3.0625 20.4375 -3.0625 20.4375 -6 21 C-6 21.99 -6 22.98 -6 24 C-4.68 24.33 -3.36 24.66 -2 25 C-3.98 27.31 -5.96 29.62 -8 32 C-9.19109375 30.3603125 -9.19109375 30.3603125 -10.40625 28.6875 C-12.31094673 26.8730199 -12.31094673 26.8730199 -15 26 C-21.10341068 26.82100102 -26.72327787 28.92573298 -32.5 31 C-34.09387843 31.54381668 -35.68892625 32.08421869 -37.28515625 32.62109375 C-40.23253172 33.61555899 -43.17064525 34.63158676 -46.10351562 35.66796875 C-52.29800827 37.82129694 -57.89931559 39.30791987 -64.5 39.375 C-65.7478125 39.40335938 -66.995625 39.43171875 -68.28125 39.4609375 C-80.79846804 38.74912447 -93.66568821 33.32244197 -105.50732422 29.47363281 C-108.12585527 28.62472273 -110.74829482 27.7887416 -113.37109375 26.953125 C-139.25174677 18.62237985 -139.25174677 18.62237985 -143 13 C-143.375 10 -143.375 10 -143 7 C-141 5.125 -141 5.125 -139 4 C-138.649375 4.763125 -138.29875 5.52625 -137.9375 6.3125 C-133.98900161 11.78944938 -125.6741101 13.15870096 -119.4296875 15.109375 C-118.5127713 15.39927307 -117.5958551 15.68917114 -116.65115356 15.987854 C-113.72681802 16.91193475 -110.80102696 17.83129046 -107.875 18.75 C-105.01164593 19.65114725 -102.14864563 20.55338811 -99.28619385 21.45739746 C-97.38187892 22.05870867 -95.47705171 22.6583999 -93.57171631 23.25646973 C-88.74704801 24.77879101 -83.94673592 26.34961704 -79.16894531 28.01367188 C-78.22802032 28.3386969 -77.28709534 28.66372192 -76.31765747 28.99859619 C-74.54347184 29.61501361 -72.77270473 30.24140187 -71.00631714 30.87982178 C-63.56704075 33.4572397 -57.78035517 34.23239085 -50.31945801 30.81599426 C-49.66489624 30.49773178 -49.01033447 30.1794693 -48.3359375 29.8515625 C-47.62900757 29.5232695 -46.92207764 29.1949765 -46.19372559 28.85673523 C-43.91367558 27.79400508 -41.64436737 26.7103301 -39.375 25.625 C-37.80807518 24.88694565 -36.24052523 24.15021706 -34.67236328 23.41479492 C-32.32481983 22.31361729 -29.97787516 21.21134624 -27.63375854 20.10289001 C-23.06904467 17.94827864 -18.48260373 15.87680303 -13.84375 13.88671875 C-12.81846191 13.44312012 -11.79317383 12.99952148 -10.73681641 12.54248047 C-8.87523921 11.74239295 -7.00791588 10.95550171 -5.13427734 10.18408203 C-0.49766968 8.32132439 -0.49766968 8.32132439 2.1796875 4.35546875 C2.24254418 1.80836238 2.24254418 1.80836238 0 0 Z " fill="#FEDED0" transform="translate(194,150)"/>
<path d="M0 0 C7.32201654 0.6393398 14.12563907 2.55269361 21.1796875 4.5625 C22.42879913 4.9138501 23.67791077 5.2652002 24.96487427 5.62719727 C27.59315357 6.36675493 30.22033014 7.11006411 32.84667969 7.85644531 C36.21447403 8.81346899 39.58416739 9.76358385 42.9546032 10.71125793 C46.17617963 11.61747994 49.39668849 12.52745594 52.6171875 13.4375 C53.82857391 13.77918213 55.03996033 14.12086426 56.28805542 14.47290039 C57.40326569 14.7899292 58.51847595 15.10695801 59.66748047 15.43359375 C60.65150848 15.71259521 61.6355365 15.99159668 62.64938354 16.27905273 C65 17 65 17 67 18 C66.83886719 18.515625 66.67773438 19.03125 66.51171875 19.5625 C65.84495025 22.73855757 65.82968253 25.75593747 65.8125 29 C65.79832031 30.216875 65.78414063 31.43375 65.76953125 32.6875 C65.99019713 35.85910445 66.51330832 37.29545116 68 40 C60.51072692 38.47160728 53.29840007 36.34109603 46.01171875 34.04296875 C44.79096146 33.6581282 43.57020416 33.27328766 42.31245422 32.87678528 C39.74555548 32.06566432 37.1799977 31.25042947 34.61499023 30.43334961 C31.33664636 29.39033768 28.05248562 28.36702696 24.76669598 27.34775829 C21.61458086 26.36487611 18.46997371 25.35848631 15.32421875 24.35546875 C14.14816574 23.99382126 12.97211273 23.63217377 11.76042175 23.25956726 C10.66861099 22.90602676 9.57680023 22.55248627 8.4519043 22.18823242 C7.4930986 21.88559982 6.53429291 21.58296722 5.5464325 21.27116394 C2.38357977 19.69228669 0.92909219 17.9374547 -1 15 C-1.42578125 11.73828125 -1.42578125 11.73828125 -1.3125 8.3125 C-1.28800781 7.17425781 -1.26351562 6.03601563 -1.23828125 4.86328125 C-1 2 -1 2 0 0 Z " fill="#FEEFE1" transform="translate(62,140)"/>
<path d="M0 0 C7.40776915 0.53901885 14.57410042 1.54250051 21.84765625 3.03125 C22.8261705 3.22722778 23.80468475 3.42320557 24.81285095 3.62512207 C26.85780249 4.03590952 28.90219871 4.44947059 30.94604492 4.86572266 C34.08445352 5.5044681 37.22465367 6.13374922 40.36523438 6.76171875 C42.35948546 7.16351464 44.35363015 7.56583906 46.34765625 7.96875 C47.28714615 8.15731567 48.22663605 8.34588135 49.19459534 8.54016113 C50.0598735 8.71704468 50.92515167 8.89392822 51.81665039 9.07617188 C52.57845108 9.23081909 53.34025177 9.38546631 54.12513733 9.5447998 C56 10 56 10 58 11 C58 17.27 58 23.54 58 30 C49.84373617 28.7236845 41.88388398 27.11663058 33.875 25.125 C24.72626585 22.86507014 24.72626585 22.86507014 15.51953125 20.859375 C14.28517334 20.60583252 14.28517334 20.60583252 13.02587891 20.34716797 C11.51373752 20.04183476 9.99913204 19.7483598 8.48193359 19.46923828 C4.17000478 18.58986582 1.69530972 17.52719543 -1 14 C-2.37979266 9.86062201 -2.83416956 5.83259645 -0.98828125 1.77734375 C-0.66214844 1.19082031 -0.33601563 0.60429688 0 0 Z " fill="#FEEFE1" transform="translate(75,91)"/>
<path d="M0 0 C-0.01160156 0.59167969 -0.02320313 1.18335938 -0.03515625 1.79296875 C-0.04417969 2.58316406 -0.05320313 3.37335938 -0.0625 4.1875 C-0.07410156 4.96480469 -0.08570313 5.74210938 -0.09765625 6.54296875 C0.00486419 9.12238294 0.46914924 11.47799967 1 14 C-12.12500611 20.08092249 -25.2492646 26.1588045 -38.46777344 32.03442383 C-43.46604771 34.2676178 -48.34999942 36.63437467 -53.125 39.3203125 C-55.48712257 40.17658193 -56.68504111 39.90520829 -59 39 C-61.3722839 36.03464513 -61.37252321 32.7366231 -61.234375 29.02734375 C-60.84172132 25.63088944 -60.0918291 23.72571671 -58 21 C-56.13291931 20.20201111 -56.13291931 20.20201111 -53.90991211 19.54663086 C-49.29221662 18.10944181 -44.85129644 16.40104275 -40.37890625 14.56640625 C-39.59410385 14.24719711 -38.80930145 13.92798798 -38.00071716 13.59910583 C-35.52022084 12.58955618 -33.04132075 11.57615587 -30.5625 10.5625 C-28.90570799 9.88710226 -27.24880772 9.21197005 -25.59179688 8.53710938 C-24.78616302 8.20883148 -23.98052917 7.88055359 -23.15048218 7.54232788 C-21.56857052 6.89814975 -19.98640187 6.2546023 -18.40396118 5.61172485 C-15.15609841 4.29149354 -11.9135684 2.96354681 -8.68310547 1.60107422 C-7.7860791 1.22611816 -6.88905273 0.85116211 -5.96484375 0.46484375 C-5.22741943 0.15023193 -4.48999512 -0.16437988 -3.73022461 -0.48852539 C-2 -1 -2 -1 0 0 Z " fill="#FEC4B8" transform="translate(190,138)"/>
<path d="M0 0 C0.495 7.425 0.495 7.425 1 15 C-0.67787598 15.68775513 -0.67787598 15.68775513 -2.38964844 16.3894043 C-6.59438054 18.11301578 -10.79892548 19.83708342 -15.00341797 21.5612793 C-16.81293834 22.30326307 -18.62250746 23.04512799 -20.43212891 23.78686523 C-22.19003208 24.5074209 -23.94780525 25.2282938 -25.70544434 25.94949341 C-27.42687119 26.65510489 -29.14895454 27.35911699 -30.8717041 28.06149292 C-34.52459728 29.55399865 -38.16627173 31.05688078 -41.76757812 32.67041016 C-43.34442383 33.3691626 -43.34442383 33.3691626 -44.953125 34.08203125 C-46.26265137 34.68301636 -46.26265137 34.68301636 -47.59863281 35.29614258 C-50.45795548 36.13422994 -52.17295115 35.85849647 -55 35 C-56.64965169 33.35034831 -56.24949498 31.4523645 -56.3125 29.1875 C-56.34988281 28.31480469 -56.38726562 27.44210938 -56.42578125 26.54296875 C-55.85294391 23.12171086 -54.711202 22.12511708 -52 20 C-49.14453125 18.5078125 -49.14453125 18.5078125 -45.8125 17.125 C-44.90588623 16.74710327 -44.90588623 16.74710327 -43.98095703 16.36157227 C-38.45926639 14.1000213 -32.83796455 12.13209457 -27.19873047 10.18676758 C-21.90986719 8.35442925 -16.75033111 6.30007251 -11.6015625 4.1015625 C-1.91489362 0 -1.91489362 0 0 0 Z " fill="#FEEFE1" transform="translate(191,113)"/>
<path d="M0 0 C0.06058594 0.74765625 0.12117188 1.4953125 0.18359375 2.265625 C0.26738281 3.25046875 0.35117188 4.2353125 0.4375 5.25 C0.51871094 6.22453125 0.59992188 7.1990625 0.68359375 8.203125 C0.95154856 10.57171321 1.39583992 12.70376168 2 15 C-4.32957954 17.45478276 -10.66557396 19.89239503 -17.00634766 22.31811523 C-19.16314223 23.14554124 -21.31843095 23.97690355 -23.47216797 24.81225586 C-26.56611989 26.0115007 -29.66519056 27.19653905 -32.765625 28.37890625 C-33.72929993 28.75592178 -34.69297485 29.13293732 -35.68585205 29.52137756 C-36.58648376 29.86180588 -37.48711548 30.20223419 -38.41503906 30.55297852 C-39.20557678 30.8572023 -39.9961145 31.16142609 -40.81060791 31.47486877 C-43.29699199 32.07123428 -44.63903414 31.95111701 -47 31 C-48.93358498 27.13283004 -48.44678448 22.55871705 -47.28417969 18.50268555 C-45.66215892 15.34159526 -44.5321713 14.94887227 -41.22265625 13.7890625 C-40.24256592 13.43448975 -39.26247559 13.07991699 -38.25268555 12.71459961 C-37.19992432 12.35503174 -36.14716309 11.99546387 -35.0625 11.625 C-33.99104736 11.24287354 -32.91959473 10.86074707 -31.81567383 10.46704102 C-29.61617996 9.68266089 -27.41424459 8.90509448 -25.20996094 8.13427734 C-22.22200801 7.07844914 -19.25341396 5.98341476 -16.2890625 4.86328125 C-15.424021 4.5369873 -14.55897949 4.21069336 -13.66772461 3.87451172 C-12.0456013 3.26168474 -10.42399659 2.64748283 -8.80297852 2.03173828 C-5.73761419 0.89223056 -3.29860496 0 0 0 Z " fill="#FEEDDF" transform="translate(182,87)"/>
<path d="M0 0 C16.33324967 2.50658782 32.26977186 7.03525337 48 12 C46.68 12.33 45.36 12.66 44 13 C43.80341192 14.41543415 43.61812454 15.83244031 43.4375 17.25 C43.33308594 18.03890625 43.22867188 18.8278125 43.12109375 19.640625 C42.99898404 22.01979487 43.3758792 23.72206416 44 26 C35.3756805 24.62316605 27.03002464 22.54392454 18.625 20.1875 C17.38105469 19.85685547 16.13710937 19.52621094 14.85546875 19.18554688 C13.05916016 18.6818457 13.05916016 18.6818457 11.2265625 18.16796875 C9.61128662 17.72360474 9.61128662 17.72360474 7.96337891 17.27026367 C4.42295849 15.75264896 2.46857335 13.93436845 0 11 C-0.48828125 8.10546875 -0.48828125 8.10546875 -0.3125 5.1875 C-0.26738281 4.21167969 -0.22226563 3.23585938 -0.17578125 2.23046875 C-0.11777344 1.49441406 -0.05976562 0.75835937 0 0 Z " fill="#FEC6BB" transform="translate(68,117)"/>
<path d="M0 0 C-2.88044477 2.88044477 -6.45088284 3.85729193 -10.19921875 5.265625 C-11.0264595 5.58150574 -11.85370026 5.89738647 -12.70600891 6.22283936 C-15.36461051 7.23695622 -18.02591346 8.2437464 -20.6875 9.25 C-23.29346436 10.240097 -25.89883321 11.23173113 -28.50369263 12.22473145 C-30.2148377 12.87602742 -31.92697662 13.52471834 -33.6401062 14.17077637 C-37.5828205 15.66356967 -41.49713677 17.19006343 -45.36962891 18.85742188 C-46.04306839 19.14333191 -46.71650787 19.42924194 -47.41035461 19.72381592 C-49.19572739 20.4884957 -50.97288175 21.27228637 -52.74926758 22.05761719 C-58.33368775 23.67653284 -63.78460696 21.89742067 -69.33081055 20.55712891 C-70.53863693 20.26657623 -71.74646332 19.97602356 -72.9908905 19.67666626 C-74.28958665 19.36032085 -75.58819404 19.04361086 -76.88671875 18.7265625 C-78.23476222 18.39885675 -79.58281019 18.07116947 -80.93086243 17.74349976 C-83.74466386 17.05846115 -86.55770314 16.37038052 -89.37036133 15.68066406 C-92.96942251 14.79879313 -96.57127494 13.928938 -100.17392254 13.06185341 C-102.95419715 12.39051227 -105.73233543 11.71064445 -108.50995827 11.02842331 C-109.8372262 10.70395247 -111.16526783 10.38262916 -112.49408531 10.06456375 C-114.35069918 9.6192747 -116.20412167 9.16074264 -118.05737305 8.70166016 C-119.11103561 8.44486481 -120.16469818 8.18806946 -121.25028992 7.92349243 C-124.01774922 6.99403891 -125.79553377 5.88645022 -128 4 C-127 3 -127 3 -123.21875 2.765625 C-117.11238764 2.83797526 -111.40325161 4.2956322 -105.5 5.75 C-104.35450684 6.02368408 -103.20901367 6.29736816 -102.02880859 6.5793457 C-99.73797147 7.12718258 -97.44806653 7.67893434 -95.15917969 8.23486328 C-91.68300365 9.07677485 -88.20124139 9.89197493 -84.71728516 10.70092773 C-65.46680818 15.17773061 -65.46680818 15.17773061 -60 17 C-53.69527826 17.56077576 -48.96189892 15.84817761 -43.1875 13.625 C-42.24914307 13.27574463 -41.31078613 12.92648926 -40.34399414 12.56665039 C-34.85443792 10.5113785 -29.40033383 8.37173712 -23.953125 6.20703125 C-22.78499268 5.7466748 -21.61686035 5.28631836 -20.41333008 4.81201172 C-18.12704223 3.90790267 -15.84542774 2.9918693 -13.5690918 2.06298828 C-12.52406494 1.64903809 -11.47903809 1.23508789 -10.40234375 0.80859375 C-9.47929443 0.43532959 -8.55624512 0.06206543 -7.60522461 -0.32250977 C-4.67644024 -1.08414191 -2.88363695 -0.81752426 0 0 Z " fill="#FCC3B7" transform="translate(194,108)"/>
<path d="M0 0 C1.485 0.37125 1.485 0.37125 3 0.75 C4.32 0.75 5.64 0.75 7 0.75 C7.33 0.42 7.66 0.09 8 -0.25 C11.22914907 -0.6863715 12.62415086 -0.49726917 15.375 1.3125 C17 3.75 17 3.75 17.1875 7 C15.32712215 12.87487741 11.27543104 16.47456896 7 20.75 C2.65547344 20.51263348 0.67929174 18.90390903 -2.25 15.8125 C-2.93578125 15.10222656 -3.6215625 14.39195313 -4.328125 13.66015625 C-6.45818097 11.22651754 -6.95955755 10.12207058 -7.3125 6.875 C-7 3.75 -7 3.75 -5.375 1.3125 C-3 -0.25 -3 -0.25 0 0 Z " fill="#E29181" transform="translate(58,59.25)"/>
<path d="M0 0 C-10.28432495 4.87764325 -20.73135374 9.28390296 -31.25 13.625 C-33.63327825 14.61044974 -36.01623047 15.59666941 -38.39855957 16.58441162 C-39.91882912 17.21417315 -41.43989188 17.84202369 -42.96179199 18.46783447 C-46.73800714 20.0272695 -50.43513339 21.67104345 -54.109375 23.4609375 C-60.77718255 26.44439447 -66.8264089 25.1038915 -73.5625 22.75 C-74.97438326 22.2824988 -76.38716744 21.8177108 -77.80078125 21.35546875 C-78.50541504 21.1239209 -79.21004883 20.89237305 -79.93603516 20.65380859 C-83.01273881 19.67919156 -86.12579143 18.8699563 -89.25 18.0625 C-96.09274207 16.27775101 -102.85552042 14.27436824 -109.62304688 12.22436523 C-116.72791332 10.07323071 -123.85428943 8.01120993 -131 6 C-130.34 5.34 -129.68 4.68 -129 4 C-117.54203812 4.79020427 -106.43222276 8.82656488 -95.43945312 11.96289062 C-86.9742068 14.37576827 -78.50172934 16.68552755 -69.93762207 18.72518921 C-65.10507998 19.89492002 -65.10507998 19.89492002 -64 21 C-56.0483441 21.74924417 -50.79127488 19.58221422 -43.6875 16.1875 C-41.49436129 15.18144562 -39.29895009 14.18033374 -37.1015625 13.18359375 C-35.38114746 12.40218018 -35.38114746 12.40218018 -33.62597656 11.60498047 C-27.95385812 9.09430806 -22.21281008 6.76950251 -16.44326782 4.49307251 C-14.58095266 3.75729046 -12.72245546 3.01186873 -10.86401367 2.26635742 C-9.73455322 1.82267822 -8.60509277 1.37899902 -7.44140625 0.921875 C-6.43795166 0.52581055 -5.43449707 0.12974609 -4.40063477 -0.27832031 C-2 -1 -2 -1 0 0 Z " fill="#F8BAA1" transform="translate(195,131)"/>
<path d="M0 0 C-0.14086914 1.82202148 -0.14086914 1.82202148 -1 4 C-3.45483398 5.47290039 -3.45483398 5.47290039 -6.74609375 6.84765625 C-7.34073929 7.10105774 -7.93538483 7.35445923 -8.54804993 7.61553955 C-10.50545793 8.44564195 -12.47104763 9.25408475 -14.4375 10.0625 C-15.7906087 10.63105179 -17.14314365 11.20097092 -18.49511719 11.7722168 C-21.27663717 12.94503155 -24.06147113 14.10941223 -26.84912109 15.26757812 C-30.8133938 16.91724835 -34.76196854 18.60187236 -38.70703125 20.296875 C-41.05456482 21.30236979 -43.40221537 22.30759155 -45.75 23.3125 C-46.85529053 23.78631104 -47.96058105 24.26012207 -49.09936523 24.74829102 C-50.11329346 25.17811279 -51.12722168 25.60793457 -52.171875 26.05078125 C-53.0597168 26.42887939 -53.94755859 26.80697754 -54.86230469 27.1965332 C-57 28 -57 28 -59 28 C-59.33 30.31 -59.66 32.62 -60 35 C-60.33 35 -60.66 35 -61 35 C-61.28221274 29.54388698 -61.4657972 25.51603878 -58 21 C-56.13291931 20.20201111 -56.13291931 20.20201111 -53.90991211 19.54663086 C-49.29221662 18.10944181 -44.85129644 16.40104275 -40.37890625 14.56640625 C-39.59410385 14.24719711 -38.80930145 13.92798798 -38.00071716 13.59910583 C-35.52022084 12.58955618 -33.04132075 11.57615587 -30.5625 10.5625 C-28.90570799 9.88710226 -27.24880772 9.21197005 -25.59179688 8.53710938 C-24.78616302 8.20883148 -23.98052917 7.88055359 -23.15048218 7.54232788 C-21.56857052 6.89814975 -19.98640187 6.2546023 -18.40396118 5.61172485 C-15.15609841 4.29149354 -11.9135684 2.96354681 -8.68310547 1.60107422 C-7.7860791 1.22611816 -6.88905273 0.85116211 -5.96484375 0.46484375 C-5.22741943 0.15023193 -4.48999512 -0.16437988 -3.73022461 -0.48852539 C-2 -1 -2 -1 0 0 Z " fill="#FCAEA0" transform="translate(190,138)"/>
<path d="M0 0 C0.66 0 1.32 0 2 0 C2.24234375 0.75925781 2.4846875 1.51851562 2.734375 2.30078125 C3.06953125 3.29464844 3.4046875 4.28851563 3.75 5.3125 C4.23726562 6.79169922 4.23726562 6.79169922 4.734375 8.30078125 C6.12459216 11.2657197 7.21002131 12.35476447 10 14 C10.99 14.33 11.98 14.66 13 15 C13 15.99 13 16.98 13 18 C12.071875 18.391875 11.14375 18.78375 10.1875 19.1875 C5.41467699 21.90145818 4.41579023 24.66509452 2.8125 29.8125 C2.544375 30.864375 2.27625 31.91625 2 33 C1.34 33 0.68 33 0 33 C-0.23074219 32.24074219 -0.46148437 31.48148438 -0.69921875 30.69921875 C-1.02535156 29.70535156 -1.35148437 28.71148437 -1.6875 27.6875 C-2.00074219 26.70136719 -2.31398438 25.71523438 -2.63671875 24.69921875 C-4.2839222 21.43785031 -5.81291429 20.66942585 -9 19 C-10.8125 17.3125 -10.8125 17.3125 -12 16 C-11.46890625 15.76667969 -10.9378125 15.53335938 -10.390625 15.29296875 C-5.42236865 12.72724513 -3.39404494 10.51278576 -1.5 5.1875 C-0.97256145 3.46650438 -0.46303556 1.73942963 0 0 Z " fill="#EA987F" transform="translate(106,33)"/>
<path d="M0 0 C0 2.97 0 5.94 0 9 C-0.93714844 9.31710938 -1.87429687 9.63421875 -2.83984375 9.9609375 C-9.81841862 12.3598501 -16.72536391 14.85876414 -23.5546875 17.66015625 C-25.23123413 18.34682373 -25.23123413 18.34682373 -26.94165039 19.04736328 C-29.17146128 19.96693619 -31.39731787 20.89616257 -33.61889648 21.83544922 C-35.16299194 22.47184326 -35.16299194 22.47184326 -36.73828125 23.12109375 C-37.65649658 23.5070874 -38.57471191 23.89308105 -39.52075195 24.29077148 C-42.176006 25.05034933 -43.4439559 24.94437334 -46 24 C-37.71932543 20.52247068 -29.40579738 17.13674326 -21.0625 13.8125 C-19.96615234 13.37486328 -18.86980469 12.93722656 -17.74023438 12.48632812 C-15.71769163 11.67903654 -13.69500588 10.87210305 -11.67211914 10.06567383 C-9.88620992 9.35343137 -8.10912516 8.61866401 -6.34155273 7.86206055 C-4 7 -4 7 -1 7 C-1.495 5.515 -1.495 5.515 -2 4 C-3.11375 4.43570313 -4.2275 4.87140625 -5.375 5.3203125 C-13.55977084 8.51578006 -21.75642462 11.66606753 -29.99658203 14.71582031 C-35.92553956 16.9308397 -41.76781841 19.34465649 -47.59399414 21.81640625 C-52.79052734 24 -52.79052734 24 -55 24 C-54 21 -54 21 -51 19.38671875 C-49.67216946 18.80752978 -48.33830821 18.24204933 -47 17.6875 C-46.28811523 17.38408691 -45.57623047 17.08067383 -44.84277344 16.76806641 C-39.00813768 14.32272387 -33.07976205 12.18967498 -27.09790039 10.13623047 C-21.83970444 8.32650072 -16.71699375 6.28583755 -11.6015625 4.1015625 C-1.91489362 0 -1.91489362 0 0 0 Z " fill="#FACBB6" transform="translate(191,113)"/>
<path d="M0 0 C0.63591064 0.40428223 1.27182129 0.80856445 1.92700195 1.22509766 C-0.82175152 4.60917317 -4.57839105 6.03879765 -8.4597168 7.77197266 C-9.19438675 8.10626282 -9.9290567 8.44055298 -10.68598938 8.78497314 C-13.0413436 9.85469088 -15.40085192 10.91488632 -17.76049805 11.97509766 C-19.29787761 12.67241894 -20.83498971 13.37033022 -22.37182617 14.06884766 C-30.62430326 17.81127173 -38.90106409 21.49330172 -47.22770691 25.0680542 C-50.37836451 26.28304976 -50.37836451 26.28304976 -53.07299805 28.22509766 C-54.59227842 28.2968973 -56.11467286 28.30901773 -57.63549805 28.28759766 C-58.46178711 28.27857422 -59.28807617 28.26955078 -60.1394043 28.26025391 C-61.0965332 28.24285156 -61.0965332 28.24285156 -62.07299805 28.22509766 C-61.74299805 27.56509766 -61.41299805 26.90509766 -61.07299805 26.22509766 C-59.16303356 26.02404876 -57.25299693 25.8236516 -55.3425293 25.62744141 C-51.59162143 24.96247839 -48.13865918 23.49195976 -45.07299805 21.22509766 C-44.7874556 20.58381927 -44.50191315 19.94254089 -44.2077179 19.28182983 C-42.83471792 16.79320391 -41.81038186 16.25950715 -39.25341797 15.08691406 C-38.46887741 14.72038727 -37.68433685 14.35386047 -36.87602234 13.97622681 C-36.02707901 13.59686981 -35.17813568 13.21751282 -34.3034668 12.82666016 C-32.9937365 12.22874161 -32.9937365 12.22874161 -31.657547 11.6187439 C-29.81028544 10.78033036 -27.95998345 9.94858838 -26.10693359 9.12304688 C-23.27175804 7.85513322 -20.45277166 6.5553647 -17.63354492 5.25244141 C-15.83690964 4.44187038 -14.03941021 3.63321147 -12.2409668 2.82666016 C-11.39809616 2.43515778 -10.55522552 2.0436554 -9.68681335 1.64028931 C-3.76919437 -0.95045864 -3.76919437 -0.95045864 0 0 Z " fill="#E08D7C" transform="translate(192.072998046875,152.77490234375)"/>
<path d="M0 0 C0 3.3 0 6.6 0 10 C-1.97419922 10.68835938 -1.97419922 10.68835938 -3.98828125 11.390625 C-4.83519531 11.68646484 -5.68210938 11.98230469 -6.5546875 12.28710938 C-8.39671137 12.93025227 -10.23916168 13.57217504 -12.08203125 14.21289062 C-17.73706001 16.18492125 -23.34953663 18.23163163 -28.90625 20.46875 C-31.31045657 21.07877256 -32.68052878 20.80127188 -35 20 C-29.24330661 16.83946245 -23.56195176 14.86059517 -17.265625 13.015625 C-13.40836162 11.81599763 -9.72923046 10.33488359 -6.0234375 8.734375 C-4 8 -4 8 -1 8 C-1 6.68 -1 5.36 -1 4 C-12.98485559 8.0824645 -24.83120873 12.40629114 -36.57055664 17.15405273 C-37.49731201 17.52473877 -38.42406738 17.8954248 -39.37890625 18.27734375 C-40.1994751 18.60984131 -41.02004395 18.94233887 -41.86547852 19.28491211 C-44 20 -44 20 -47 20 C-46.79248047 18.13208008 -46.79248047 18.13208008 -46 16 C-43.98486328 14.83081055 -43.98486328 14.83081055 -41.3203125 13.88671875 C-40.33699951 13.52892334 -39.35368652 13.17112793 -38.34057617 12.80249023 C-37.27943604 12.43454346 -36.2182959 12.06659668 -35.125 11.6875 C-34.04903564 11.30086182 -32.97307129 10.91422363 -31.86450195 10.51586914 C-29.65376098 9.72159584 -27.44092406 8.93313316 -25.22607422 8.15039062 C-22.23351226 7.08326848 -19.2572314 5.98210065 -16.28515625 4.859375 C-14.98843994 4.37078003 -14.98843994 4.37078003 -13.66552734 3.87231445 C-12.04409001 3.2606412 -10.42329401 2.64726449 -8.80322266 2.03198242 C-5.73779942 0.89223886 -3.29873668 0 0 0 Z " fill="#FACAB4" transform="translate(182,87)"/>
<path d="M0 0 C1.32 0 2.64 0 4 0 C4 6.93 4 13.86 4 21 C-7.44112478 21.36906854 -7.44112478 21.36906854 -9.86328125 19.76953125 C-11.29444126 17.54164299 -11.40136288 16.1362878 -11.375 13.5 C-11.38273438 12.7265625 -11.39046875 11.953125 -11.3984375 11.15625 C-10.90626646 8.49273612 -10.15999071 7.5984943 -8 6 C-4.90498792 5.74734595 -2.79870027 5.60064987 0 7 C0 4.69 0 2.38 0 0 Z " fill="#E39586" transform="translate(152,195)"/>
<path d="M0 0 C1.32 0 2.64 0 4 0 C4 6.93 4 13.86 4 21 C2.081875 21.0825 0.16375 21.165 -1.8125 21.25 C-3.43091797 21.31960937 -3.43091797 21.31960937 -5.08203125 21.390625 C-8 21 -8 21 -9.859375 19.203125 C-11.54104969 15.95495882 -11.44966521 13.59732167 -11 10 C-9.375 7.5625 -9.375 7.5625 -7 6 C-3.75 5.75 -3.75 5.75 -1 6 C-0.67 4.02 -0.34 2.04 0 0 Z " fill="#E18E7E" transform="translate(90,195)"/>
<path d="M0 0 C7.32201654 0.6393398 14.12563907 2.55269361 21.1796875 4.5625 C22.42879913 4.9138501 23.67791077 5.2652002 24.96487427 5.62719727 C27.59315357 6.36675493 30.22033014 7.11006411 32.84667969 7.85644531 C36.21447403 8.81346899 39.58416739 9.76358385 42.9546032 10.71125793 C46.17617963 11.61747994 49.39668849 12.52745594 52.6171875 13.4375 C53.82857391 13.77918213 55.03996033 14.12086426 56.28805542 14.47290039 C57.40326569 14.7899292 58.51847595 15.10695801 59.66748047 15.43359375 C60.65150848 15.71259521 61.6355365 15.99159668 62.64938354 16.27905273 C65 17 65 17 67 18 C67 18.99 67 19.98 67 21 C61.38207998 20.34437248 56.15092562 19.03377339 50.7265625 17.453125 C49.4035463 17.07350616 49.4035463 17.07350616 48.05380249 16.68621826 C45.24292933 15.87849075 42.43397318 15.06430725 39.625 14.25 C37.7774632 13.71833473 35.92980784 13.18708127 34.08203125 12.65625 C30.46026583 11.61516825 26.84120777 10.56530813 23.22363281 9.50976562 C19.78796714 8.50945804 16.34572668 7.5413085 12.89355469 6.59960938 C11.70516495 6.26881378 11.70516495 6.26881378 10.49276733 5.93133545 C9.00856682 5.51865502 7.52167559 5.11549283 6.03189087 4.72344971 C4.05615234 4.16699219 4.05615234 4.16699219 1 3 C0.67 2.01 0.34 1.02 0 0 Z " fill="#FCCFB9" transform="translate(62,140)"/>
<path d="M0 0 C0.33 0.66 0.66 1.32 1 2 C2.65 1.67 4.3 1.34 6 1 C6.66 2.65 7.32 4.3 8 6 C8.33 6 8.66 6 9 6 C9.07476562 6.68707031 9.14953125 7.37414062 9.2265625 8.08203125 C9.9031355 13.81885571 9.9031355 13.81885571 13.5625 17.9375 C15.2640625 18.4634375 15.2640625 18.4634375 17 19 C18.62515753 19.56204469 20.25015217 20.12456059 21.875 20.6875 C23.24856381 21.12948836 24.62308448 21.56856647 26 22 C25.67 22.66 25.34 23.32 25 24 C19.42090632 23.6420493 13.96944252 22.91919242 8.5 21.75 C7.4996875 21.53859375 6.499375 21.3271875 5.46875 21.109375 C3 20 3 20 1.7265625 17.5390625 C1.36691406 16.28222656 1.36691406 16.28222656 1 15 C0.62875 14.21625 0.2575 13.4325 -0.125 12.625 C-1.57925759 8.26222723 -1.445329 4.33598699 0 0 Z " fill="#E18F7F" transform="translate(59,114)"/>
<path d="M0 0 C5.852795 0.51482919 11.3297637 1.45357192 17 3 C16.83628906 3.53109375 16.67257813 4.0621875 16.50390625 4.609375 C15.88643623 7.53876764 15.90498075 10.25822936 15.9375 13.25 C15.94652344 14.32765625 15.95554688 15.4053125 15.96484375 16.515625 C15.97644531 17.33546875 15.98804688 18.1553125 16 19 C10.54520815 18.43179252 6.08940744 17.05362055 1 15 C1.66 14.67 2.32 14.34 3 14 C2.98839844 13.38511719 2.97679688 12.77023438 2.96484375 12.13671875 C2.95582031 11.32847656 2.94679688 10.52023438 2.9375 9.6875 C2.92589844 8.88699219 2.91429688 8.08648437 2.90234375 7.26171875 C3 5 3 5 4 2 C2.68 1.67 1.36 1.34 0 1 C0 0.67 0 0.34 0 0 Z " fill="#FDC5BA" transform="translate(117,130)"/>
<path d="M0 0 C-12.24559185 4.93786155 -24.49945062 9.85738377 -36.8125 14.625 C-38.11707153 15.13836914 -38.11707153 15.13836914 -39.44799805 15.66210938 C-40.65903198 16.12713867 -40.65903198 16.12713867 -41.89453125 16.6015625 C-42.59425049 16.87307129 -43.29396973 17.14458008 -44.01489258 17.42431641 C-46 18 -46 18 -50 18 C-50 17.01 -50 16.02 -50 15 C-50.66 15 -51.32 15 -52 15 C-51.67 14.34 -51.34 13.68 -51 13 C-49.33967211 12.63640657 -47.67107427 12.31048295 -46 12 C-43.7303031 11.2019201 -41.47483727 10.36284947 -39.23046875 9.49609375 C-37.91622567 8.99749288 -36.60176551 8.49946388 -35.28710938 8.00195312 C-33.23777196 7.22215145 -31.19020855 6.43855187 -29.14624023 5.64477539 C-27.15785887 4.87480848 -25.16366104 4.12187257 -23.16796875 3.37109375 C-21.98485107 2.91661865 -20.8017334 2.46214355 -19.58276367 1.99389648 C-15.46268286 0.85094255 -12.25703454 0.90660118 -8 1 C-2.84375 -0.94791667 -2.84375 -0.94791667 0 0 Z " fill="#E8A086" transform="translate(187,105)"/>
<path d="M0 0 C0.845625 0.04125 1.69125 0.0825 2.5625 0.125 C4.41713477 0.125 6.27256788 0.09036254 8.125 0 C10.5625 0.125 10.5625 0.125 12.5625 2.125 C13.228997 6.3144097 12.741487 7.85396254 10.375 11.4375 C7.43450461 14.24730671 6.40734041 14.57573708 2.5625 15.125 C1.38086949 13.91021149 0.21767165 12.67747592 -0.9375 11.4375 C-1.5871875 10.75300781 -2.236875 10.06851563 -2.90625 9.36328125 C-4.73914526 6.68407466 -4.90206802 5.3083468 -4.4375 2.125 C-2.4375 0.125 -2.4375 0.125 0 0 Z " fill="#ED9D83" transform="translate(192.4375,63.875)"/>
<path d="M0 0 C0.66 0.33 1.32 0.66 2 1 C1.67 2.32 1.34 3.64 1 5 C-1.64 4.67 -4.28 4.34 -7 4 C-7 5.32 -7 6.64 -7 8 C-5.906875 8.268125 -4.81375 8.53625 -3.6875 8.8125 C1.57566766 10.5074184 1.57566766 10.5074184 3 13 C2.77669287 16.64734979 2.61627165 18.38372835 0 21 C-2.3125 21.23046875 -2.3125 21.23046875 -5 21.1875 C-6.3303125 21.17783203 -6.3303125 21.17783203 -7.6875 21.16796875 C-10 21 -10 21 -12 20 C-11.67 18.68 -11.34 17.36 -11 16 C-8.36 16.33 -5.72 16.66 -3 17 C-3 16.01 -3 15.02 -3 14 C-3.56589844 13.78085938 -4.13179687 13.56171875 -4.71484375 13.3359375 C-10.685602 10.7545552 -10.685602 10.7545552 -12.25 7 C-12 4 -12 4 -10.5625 1.625 C-6.83458616 -0.73904292 -4.3776596 -0.35303706 0 0 Z " fill="#E18E7E" transform="translate(47,195)"/>
<path d="M0 0 C3.70129644 0.38961015 5.61879622 1.11749016 8 4 C8.391875 3.34 8.78375 2.68 9.1875 2 C11 0 11 0 13.6875 -0.25 C14.8321875 -0.12625 14.8321875 -0.12625 16 0 C16.9375 2.5 16.9375 2.5 17 6 C14.37990991 10.05191397 11.6315968 13.4561344 7 15 C3.54563194 12.46209694 1.37902903 10.56854354 -1 7 C-1.1875 3.875 -1.1875 3.875 -1 1 C-0.67 0.67 -0.34 0.34 0 0 Z " fill="#FDC6B8" transform="translate(55,62)"/>
<path d="M0 0 C0.66 0.33 1.32 0.66 2 1 C1.67 2.32 1.34 3.64 1 5 C-1.64 4.67 -4.28 4.34 -7 4 C-7 5.32 -7 6.64 -7 8 C-5.906875 8.268125 -4.81375 8.53625 -3.6875 8.8125 C1.39370079 10.4488189 1.39370079 10.4488189 3 13 C3.42408618 15.8272412 3.50731102 17.30430639 1.80078125 19.64453125 C-0.62647555 21.47155535 -2.18615116 21.30443567 -5.1875 21.1875 C-6.53908203 21.14689453 -6.53908203 21.14689453 -7.91796875 21.10546875 C-8.60503906 21.07066406 -9.29210937 21.03585938 -10 21 C-10.33 19.35 -10.66 17.7 -11 16 C-8.36 16.33 -5.72 16.66 -3 17 C-3 16.01 -3 15.02 -3 14 C-5.64 12.68 -8.28 11.36 -11 10 C-11.35706695 3.69181722 -11.35706695 3.69181722 -10 1.0625 C-6.68476331 -0.69871949 -3.71856563 -0.23609941 0 0 Z " fill="#E18C7C" transform="translate(129,195)"/>
<path d="M0 0 C7.38026699 0.17275076 14.6369643 1.55536747 21.84765625 3.03125 C22.8261705 3.22722778 23.80468475 3.42320557 24.81285095 3.62512207 C26.85780249 4.03590952 28.90219871 4.44947059 30.94604492 4.86572266 C34.08445352 5.5044681 37.22465367 6.13374922 40.36523438 6.76171875 C42.35948546 7.16351464 44.35363015 7.56583906 46.34765625 7.96875 C47.28714615 8.15731567 48.22663605 8.34588135 49.19459534 8.54016113 C50.0598735 8.71704468 50.92515167 8.89392822 51.81665039 9.07617188 C52.57845108 9.23081909 53.34025177 9.38546631 54.12513733 9.5447998 C56 10 56 10 58 11 C57.67 12.32 57.34 13.64 57 15 C57 14.34 57 13.68 57 13 C56.40243393 12.95097031 55.80486786 12.90194061 55.18919373 12.85142517 C48.7934778 12.27603191 42.5779073 11.26770039 36.28515625 10.00390625 C35.30759872 9.81030014 34.3300412 9.61669403 33.32286072 9.41722107 C31.2761998 9.01030425 29.23002462 8.60093714 27.18432617 8.18920898 C24.04834511 7.55965839 20.91008026 6.94253759 17.77148438 6.32617188 C15.77589254 5.92782969 13.78044438 5.52876693 11.78515625 5.12890625 C10.37895775 4.85379967 10.37895775 4.85379967 8.9443512 4.57313538 C7.6417057 4.30792336 7.6417057 4.30792336 6.31274414 4.03735352 C5.55014786 3.88492691 4.78755157 3.73250031 4.00184631 3.57545471 C2 3 2 3 -1 1 C-0.67 0.67 -0.34 0.34 0 0 Z " fill="#FBCCB6" transform="translate(75,91)"/>
<path d="M0 0 C1.32 0 2.64 0 4 0 C4.33 3.3 4.66 6.6 5 10 C5.5775 9.34 6.155 8.68 6.75 8 C9 6 9 6 13 6 C11.66666667 8.66666667 10.33333333 11.33333333 9 14 C9.66 14.78375 10.32 15.5675 11 16.375 C13 19 13 19 13 21 C9.75791433 20.64950425 8.38472296 20.43778819 6.1875 17.9375 C5.795625 17.298125 5.40375 16.65875 5 16 C4.67 17.65 4.34 19.3 4 21 C2.68 21 1.36 21 0 21 C0 14.07 0 7.14 0 0 Z " fill="#E29080" transform="translate(174,195)"/>
<path d="M0 0 C1.32 0 2.64 0 4 0 C4.33 3.3 4.66 6.6 5 10 C5.5775 9.34 6.155 8.68 6.75 8 C9 6 9 6 13 6 C11.66666667 8.66666667 10.33333333 11.33333333 9 14 C9.66 14.78375 10.32 15.5675 11 16.375 C13 19 13 19 13 21 C9.75791433 20.64950425 8.38472296 20.43778819 6.1875 17.9375 C5.795625 17.298125 5.40375 16.65875 5 16 C4.67 17.65 4.34 19.3 4 21 C2.68 21 1.36 21 0 21 C0 14.07 0 7.14 0 0 Z " fill="#E08B7B" transform="translate(211,195)"/>
<path d="M0 0 C2.38671875 0.27734375 2.38671875 0.27734375 5 1 C6.8125 4.5625 6.8125 4.5625 8 8 C8.99 5.36 9.98 2.72 11 0 C12.32 0 13.64 0 15 0 C14.32948075 4.3459581 12.80792302 8.18181695 11.0625 12.1875 C10.66514648 13.13012695 10.66514648 13.13012695 10.25976562 14.09179688 C9.07860142 16.83221507 8.12939544 18.87060456 6 21 C3.375 21.125 3.375 21.125 1 21 C1 20.01 1 19.02 1 18 C1.99 17.67 2.98 17.34 4 17 C3.35729017 11.0870696 1.80996216 5.65755469 0 0 Z " fill="#E18D7E" transform="translate(96,201)"/>
<path d="M0 0 C1.875 1.1875 1.875 1.1875 3 3 C3.1875 5.6875 3.1875 5.6875 3 8 C0.03 8 -2.94 8 -6 8 C-5.67 8.99 -5.34 9.98 -5 11 C-2.69 11 -0.38 11 2 11 C2 12.32 2 13.64 2 15 C0.56344146 15.08131463 -0.8744483 15.13933559 -2.3125 15.1875 C-3.51326172 15.23970703 -3.51326172 15.23970703 -4.73828125 15.29296875 C-7 15 -7 15 -8.765625 13.734375 C-10.52250088 11.26585319 -10.47298167 8.90017596 -10.34765625 5.94140625 C-10 4 -10 4 -8.375 1.5 C-5.31593299 -0.43204232 -3.5572204 -0.52979878 0 0 Z " fill="#E18D7D" transform="translate(168,201)"/>
<path d="M0 0 C1.32 0.33 2.64 0.66 4 1 C4.33 4.3 4.66 7.6 5 11 C5.99 11 6.98 11 8 11 C8.33 7.37 8.66 3.74 9 0 C10.32 0 11.64 0 13 0 C13 4.95 13 9.9 13 15 C4.6015625 15.1953125 4.6015625 15.1953125 2 15 C0 13 0 13 -0.1953125 9.9609375 C-0.17210937 8.77757812 -0.14890625 7.59421875 -0.125 6.375 C-0.10695312 5.18648437 -0.08890625 3.99796875 -0.0703125 2.7734375 C-0.04710937 1.85820312 -0.02390625 0.94296875 0 0 Z " fill="#E08B7B" transform="translate(64,201)"/>
<path d="M0 0 C8.98763731 0.61983706 17.58779978 3.39157831 26.1875 5.9375 C27.06341797 6.18951172 27.93933594 6.44152344 28.84179688 6.70117188 C33.25377708 8.0090447 37.22808028 9.25891548 41 12 C41 12.33 41 12.66 41 13 C34.42693446 12.45279394 28.58598291 11.18405498 22.3125 9.1875 C20.56403827 8.64637167 18.81533851 8.10601188 17.06640625 7.56640625 C15.78660889 7.16832764 15.78660889 7.16832764 14.48095703 6.76220703 C9.01422289 5.08270064 3.5047702 3.54935585 -2 2 C-1.34 1.34 -0.68 0.68 0 0 Z " fill="#FCC1B5" transform="translate(66,135)"/>
<path d="M0 0 C-0.33 3.96 -0.66 7.92 -1 12 C-6 13 -6 13 -8.2578125 12.3359375 C-10 11 -10 11 -10.6796875 8.9765625 C-10.74414062 8.20054687 -10.80859375 7.42453125 -10.875 6.625 C-10.95492187 5.85414063 -11.03484375 5.08328125 -11.1171875 4.2890625 C-10.98362858 1.68021152 -10.40678448 0.18779242 -9 -2 C-4.94287628 -3.64820651 -3.5652911 -2.37686073 0 0 Z " fill="#FAC0B5" transform="translate(121,132)"/>
<path d="M0 0 C0.66 0.33 1.32 0.66 2 1 C-8.27146831 6.27168006 -18.66947801 11.21626381 -29.18774414 15.97705078 C-33.67639383 18.00952564 -38.15069277 20.04685988 -42.5546875 22.2578125 C-49.27248042 25.61262768 -54.38568613 27.93509118 -62 27 C-61.67 26.34 -61.34 25.68 -61 25 C-59.4221875 24.9071875 -59.4221875 24.9071875 -57.8125 24.8125 C-53.62496573 24.38141676 -50.58193297 22.92413661 -46.8671875 20.97265625 C-38.95685721 16.89967062 -30.86591718 13.28183324 -22.7277832 9.69091797 C-20.27585745 8.60882883 -17.82626571 7.52158321 -15.37695312 6.43359375 C-13.81002636 5.73928869 -12.24297386 5.0452673 -10.67578125 4.3515625 C-9.94772781 4.0287027 -9.21967438 3.7058429 -8.46955872 3.37319946 C-5.66809421 2.13841362 -2.90635081 0.9687836 0 0 Z " fill="#F4B78D" transform="translate(192,154)"/>
<path d="M0 0 C0.9075 0.00257813 1.815 0.00515625 2.75 0.0078125 C4.11125 0.00394531 4.11125 0.00394531 5.5 0 C7.75 0.1328125 7.75 0.1328125 8.75 1.1328125 C8.52265843 5.14918032 8.32290919 7.45573801 5.6875 10.5703125 C5.048125 11.0859375 4.40875 11.6015625 3.75 12.1328125 C0.38426067 10.69035279 -2.00010389 9.0493445 -4.25 6.1328125 C-3.83793481 0.22654476 -3.83793481 0.22654476 0 0 Z " fill="#EC9D85" transform="translate(206.25,139.8671875)"/>
<path d="M0 0 C1 1 2 2 3 3 C3.886875 3.845625 4.77375 4.69125 5.6875 5.5625 C8 8 8 8 8 10 C7.21625 10.61875 6.4325 11.2375 5.625 11.875 C3.13770844 13.88852174 2.14461734 15.08642859 1 18 C-1 17 -1 17 -1.875 14.5625 C-2.77050152 11.86394485 -2.77050152 11.86394485 -5.125 10.6875 C-5.74375 10.460625 -6.3625 10.23375 -7 10 C-6 7 -6 7 -4.0625 5.5625 C-1.83336183 3.87375896 -1.0554819 2.55074793 0 0 Z " fill="#FDCE9D" transform="translate(203,85)"/>
<path d="M0 0 C0.66 0.33 1.32 0.66 2 1 C1.67 2.32 1.34 3.64 1 5 C0.030625 4.814375 -0.93875 4.62875 -1.9375 4.4375 C-2.948125 4.293125 -3.95875 4.14875 -5 4 C-6.29633621 5.06645115 -6.29633621 5.06645115 -6.0625 7.5625 C-6.041875 8.366875 -6.02125 9.17125 -6 10 C-5.236875 10.144375 -4.47375 10.28875 -3.6875 10.4375 C-1 11 -1 11 2 12 C1.67 12.99 1.34 13.98 1 15 C-7.18462594 15.61770762 -7.18462594 15.61770762 -10.0625 13.4375 C-11.36454848 10.05217395 -11.4495791 7.59663278 -11 4 C-8.0811897 -0.55334407 -5.14435411 -0.47632908 0 0 Z " fill="#E29081" transform="translate(207,201)"/>
<path d="M0 0 C1.32 0 2.64 0 4 0 C4 1.32 4 2.64 4 4 C5.65 4.33 7.3 4.66 9 5 C9 5.66 9 6.32 9 7 C7.35 7 5.7 7 4 7 C4.33 9.64 4.66 12.28 5 15 C5.99 15.33 6.98 15.66 8 16 C8 16.99 8 17.98 8 19 C5.125 19.125 5.125 19.125 2 19 C0 17 0 17 -0.1953125 14.6171875 C-0.17210937 13.71226562 -0.14890625 12.80734375 -0.125 11.875 C-0.10695312 10.96492187 -0.08890625 10.05484375 -0.0703125 9.1171875 C-0.04710937 8.41851562 -0.02390625 7.71984375 0 7 C-0.66 7 -1.32 7 -2 7 C-2 6.01 -2 5.02 -2 4 C-1.34 4 -0.68 4 0 4 C0 2.68 0 1.36 0 0 Z " fill="#E29283" transform="translate(53,197)"/>
<path d="M0 0 C0.33 0 0.66 0 1 0 C1.05429959 1.74965358 1.09292823 3.49979787 1.125 5.25 C1.14820313 6.22453125 1.17140625 7.1990625 1.1953125 8.203125 C0.99862781 11.0196498 0.44568916 12.60949036 -1 15 C-1.66 13.02 -2.32 11.04 -3 9 C-4.32 9.33 -5.64 9.66 -7 10 C-7.20970559 14.14093698 -7.20970559 14.14093698 -6 18 C-5.01 18.66 -4.02 19.32 -3 20 C-8.50058207 20.36670547 -8.50058207 20.36670547 -10.67578125 18.76953125 C-12.34351944 16.54096075 -12.40261081 15.26108127 -12.375 12.5 C-12.38273438 11.7265625 -12.39046875 10.953125 -12.3984375 10.15625 C-12 8 -12 8 -10.76953125 6.19921875 C-8.38902086 4.58593688 -7.11499616 4.86572525 -4.3125 5.3125 C-3.50425781 5.43238281 -2.69601563 5.55226562 -1.86328125 5.67578125 C-1.24839844 5.78277344 -0.63351563 5.88976562 0 6 C0 4.02 0 2.04 0 0 Z " fill="#E08878" transform="translate(153,196)"/>
<path d="M0 0 C0.66 0 1.32 0 2 0 C2.2475 0.78375 2.495 1.5675 2.75 2.375 C4.18650005 5.3916501 5.04720831 5.71565565 8 7 C7.04956626 8.33897583 6.08940853 9.67105427 5.125 11 C4.59132813 11.7425 4.05765625 12.485 3.5078125 13.25 C3.01023437 13.8275 2.51265625 14.405 2 15 C1.34 15 0.68 15 0 15 C-1.5078125 13.25 -1.5078125 13.25 -3.125 11 C-3.66382812 10.2575 -4.20265625 9.515 -4.7578125 8.75 C-5.16773437 8.1725 -5.57765625 7.595 -6 7 C-5.04882866 5.8274869 -4.08882991 4.66212985 -3.125 3.5 C-2.59132813 2.8503125 -2.05765625 2.200625 -1.5078125 1.53125 C-0.76144531 0.77328125 -0.76144531 0.77328125 0 0 Z " fill="#FBCA99" transform="translate(106,42)"/>
<path d="M0 0 C0 0.66 0 1.32 0 2 C-3.74934294 3.47565279 -7.49895036 4.95063146 -11.2487793 6.42504883 C-13.13408421 7.16649288 -15.01919342 7.90843451 -16.90429688 8.65039062 C-19.37404771 9.62134808 -21.84524724 10.58862851 -24.31787109 11.55224609 C-26.7813606 12.52085057 -29.23750275 13.50834495 -31.68603516 14.51416016 C-32.83765137 14.97999512 -33.98926758 15.44583008 -35.17578125 15.92578125 C-36.20227783 16.34899658 -37.22877441 16.77221191 -38.28637695 17.20825195 C-41.07971379 18.02325792 -42.32559767 18.02929169 -45 17 C-36.71932543 13.52247068 -28.40579738 10.13674326 -20.0625 6.8125 C-18.96615234 6.37486328 -17.86980469 5.93722656 -16.74023438 5.48632812 C-14.71769163 4.67903654 -12.69500588 3.87210305 -10.67211914 3.06567383 C-8.88620992 2.35343137 -7.10912516 1.61866401 -5.34155273 0.86206055 C-3 0 -3 0 0 0 Z " fill="#FED3C0" transform="translate(190,120)"/>
<path d="M0 0 C0.99 0 1.98 0 3 0 C3 6.93 3 13.86 3 21 C-0.3 21 -3.6 21 -7 21 C-7 20.01 -7 19.02 -7 18 C-5.35 17.67 -3.7 17.34 -2 17 C-1.34 11.39 -0.68 5.78 0 0 Z " fill="#E08978" transform="translate(91,195)"/>
<path d="M0 0 C0.33 0 0.66 0 1 0 C1 6.93 1 13.86 1 21 C0.01 20.01 -0.98 19.02 -2 18 C-3.99958364 17.95919217 -6.00045254 17.95745644 -8 18 C-10 16 -10 16 -10.25 13.5 C-10 11 -10 11 -8 9 C-4.375 9.375 -4.375 9.375 -1 10 C-0.67 6.7 -0.34 3.4 0 0 Z " fill="#FBEAE3" transform="translate(210,195)"/>
<path d="M0 0 C0.66 0 1.32 0 2 0 C2.474375 0.804375 2.94875 1.60875 3.4375 2.4375 C4.79983672 5.2918076 4.79983672 5.2918076 8 6 C8 6.66 8 7.32 8 8 C7.195625 8.639375 6.39125 9.27875 5.5625 9.9375 C2.76279268 11.81035932 2.76279268 11.81035932 2 15 C1.34 15 0.68 15 0 15 C-1.0064275 13.33720673 -2.00585407 11.67016516 -3 10 C-3.99 9.34 -4.98 8.68 -6 8 C-6 7.34 -6 6.68 -6 6 C-5.38125 5.7525 -4.7625 5.505 -4.125 5.25 C-1.64931313 3.79371361 -1.04874998 2.62187494 0 0 Z " fill="#FDCF9E" transform="translate(47,82)"/>
<path d="M0 0 C9.57 0 19.14 0 29 0 C29 0.99 29 1.98 29 3 C19.43 3 9.86 3 0 3 C0 2.01 0 1.02 0 0 Z " fill="#FECDBE" transform="translate(165,51)"/>
<path d="M0 0 C0.9075 0.37125 1.815 0.7425 2.75 1.125 C5.88097015 2.30359299 5.88097015 2.30359299 8.375 1.125 C8.91125 0.75375 9.4475 0.3825 10 0 C10.8125 2.1875 10.8125 2.1875 11 5 C8.8125 7.875 8.8125 7.875 6 10 C3.9375 10.125 3.9375 10.125 2 9 C-0.25 6.4375 -0.25 6.4375 -2 4 C-1.34 2.68 -0.68 1.36 0 0 Z " fill="#FDC6B5" transform="translate(192,66)"/>
<path d="M0 0 C0.66 0 1.32 0 2 0 C2 2.31 2 4.62 2 7 C1.45174561 7.19110352 0.90349121 7.38220703 0.33862305 7.57910156 C-1.29262905 8.14801164 -2.92371877 8.71738742 -4.5546875 9.28710938 C-6.39671137 9.93025227 -8.23916168 10.57217504 -10.08203125 11.21289062 C-15.73706001 13.18492125 -21.34953663 15.23163163 -26.90625 17.46875 C-29.31045657 18.07877256 -30.68052878 17.80127188 -33 17 C-27.24330661 13.83946245 -21.56195176 11.86059517 -15.265625 10.015625 C-11.40836162 8.81599763 -7.72923046 7.33488359 -4.0234375 5.734375 C-2 5 -2 5 1 5 C0.505 2.525 0.505 2.525 0 0 Z " fill="#FDD4C2" transform="translate(180,90)"/>
<path d="M0 0 C0.66 0 1.32 0 2 0 C2.2475 0.61875 2.495 1.2375 2.75 1.875 C4.01039254 4.45868886 4.01039254 4.45868886 8 6 C6.02 8.31 4.04 10.62 2 13 C-0.31 11.02 -2.62 9.04 -5 7 C-4.0409375 6.1028125 -4.0409375 6.1028125 -3.0625 5.1875 C-0.79689611 3.09189663 -0.79689611 3.09189663 0 0 Z " fill="#FDCF9F" transform="translate(184,169)"/>
<path d="M0 0 C1.5 1.375 1.5 1.375 3 3 C3 3.66 3 4.32 3 5 C4.32 5.33 5.64 5.66 7 6 C7 6.66 7 7.32 7 8 C6.38125 8.268125 5.7625 8.53625 5.125 8.8125 C2.7004767 9.95556848 2.7004767 9.95556848 1 13 C0.34 13 -0.32 13 -1 13 C-1.33 12.01 -1.66 11.02 -2 10 C-2.99 9.34 -3.98 8.68 -5 8 C-4.67 7.01 -4.34 6.02 -4 5 C-3.34 4.67 -2.68 4.34 -2 4 C-0.86649466 1.98330173 -0.86649466 1.98330173 0 0 Z " fill="#FDCE9D" transform="translate(48,113)"/>
<path d="M0 0 C5.28 0 10.56 0 16 0 C16 1.32 16 2.64 16 4 C10.72 4 5.44 4 0 4 C0 2.68 0 1.36 0 0 Z " fill="#FED2C5" transform="translate(204,126)"/>
<path d="M0 0 C5.28 0 10.56 0 16 0 C16 1.32 16 2.64 16 4 C10.72 4 5.44 4 0 4 C0 2.68 0 1.36 0 0 Z " fill="#FED2C5" transform="translate(165,58)"/>
<path d="M0 0 C0 5.61 0 11.22 0 17 C-4 15 -4 15 -6 12 C-6.08203125 9.84375 -6.08203125 9.84375 -5.8125 7.5 C-5.73644531 6.7265625 -5.66039063 5.953125 -5.58203125 5.15625 C-4.73690855 2.02532563 -3.3901172 0 0 0 Z " fill="#FAC999" transform="translate(72,90)"/>
<path d="M0 0 C0.33 0.66 0.66 1.32 1 2 C2.65 1.67 4.3 1.34 6 1 C7.09506492 4.28519475 7.09960608 6.73663415 7.0625 10.1875 C7.05347656 11.27417969 7.04445313 12.36085938 7.03515625 13.48046875 C7.02355469 14.31191406 7.01195313 15.14335937 7 16 C4 15 4 15 2.875 13.375 C1.73829667 10.28966239 1.37579744 7.25691115 1 4 C0.67 5.98 0.34 7.96 0 10 C-0.33 10 -0.66 10 -1 10 C-1.125 3.375 -1.125 3.375 0 0 Z " fill="#F3B792" transform="translate(59,114)"/>
<path d="M0 0 C1.875 1.1875 1.875 1.1875 3 3 C3.1875 5.6875 3.1875 5.6875 3 8 C0.03 8 -2.94 8 -6 8 C-6 7.67 -6 7.34 -6 7 C-4.02 7 -2.04 7 0 7 C-0.33 6.01 -0.66 5.02 -1 4 C-3.31 4.33 -5.62 4.66 -8 5 C-8.33 6.65 -8.66 8.3 -9 10 C-9.33 10 -9.66 10 -10 10 C-10.32152515 6.46322336 -10.4131192 4.6037896 -8.375 1.625 C-5.32214079 -0.46379841 -3.63031776 -0.54068562 0 0 Z " fill="#E08B7A" transform="translate(168,201)"/>
<path d="M0 0 C0.33 0 0.66 0 1 0 C1.33 4.29 1.66 8.58 2 13 C0.68 13.33 -0.64 13.66 -2 14 C-2 13.01 -2 12.02 -2 11 C-3.32 10.67 -4.64 10.34 -6 10 C-6 7.36 -6 4.72 -6 2 C-4.35 2 -2.7 2 -1 2 C-0.67 1.34 -0.34 0.68 0 0 Z " fill="#F9E2DB" transform="translate(63,202)"/>
<path d="M0 0 C1.98 1.65 3.96 3.3 6 5 C4.55746343 8.36591866 2.66735273 10.51047079 0 13 C-0.268125 12.38125 -0.53625 11.7625 -0.8125 11.125 C-1.95556848 8.7004767 -1.95556848 8.7004767 -5 7 C-5 6.34 -5 5.68 -5 5 C-3.68 4.67 -2.36 4.34 -1 4 C-0.67 2.68 -0.34 1.36 0 0 Z " fill="#FDCE9C" transform="translate(89,61)"/>
<path d="M0 0 C5.11100543 -0.38332541 9.59152383 0.34323622 14 3 C16 6.1875 16 6.1875 17 9 C15.56206608 8.68950274 14.1246682 8.3765224 12.6875 8.0625 C11.88699219 7.88847656 11.08648437 7.71445313 10.26171875 7.53515625 C8 7 8 7 5 6 C4.67 5.01 4.34 4.02 4 3 C1.99983534 1.79117904 1.99983534 1.79117904 0 1 C0 0.67 0 0.34 0 0 Z " fill="#FBE9DC" transform="translate(113,171)"/>
<path d="M0 0 C2 0 2 0 4.625 2.375 C7 5 7 5 7 7 C4.625 9.625 4.625 9.625 2 12 C1.34 12 0.68 12 0 12 C-0.33 11.01 -0.66 10.02 -1 9 C-1.99 8.34 -2.98 7.68 -4 7 C-4 6.34 -4 5.68 -4 5 C-3.01 4.34 -2.02 3.68 -1 3 C-0.67 2.01 -0.34 1.02 0 0 Z " fill="#FDCE9D" transform="translate(136,37)"/>
<path d="M0 0 C0.99 0 1.98 0 3 0 C3 4.95 3 9.9 3 15 C1.68 15 0.36 15 -1 15 C-1.02685412 12.68756208 -1.04632841 10.3750373 -1.0625 8.0625 C-1.07410156 6.77472656 -1.08570313 5.48695313 -1.09765625 4.16015625 C-1 1 -1 1 0 0 Z " fill="#E29181" transform="translate(135,201)"/>
<path d="M0 0 C1.32 0.33 2.64 0.66 4 1 C4 5.62 4 10.24 4 15 C2.68 15 1.36 15 0 15 C0 10.05 0 5.1 0 0 Z " fill="#E08B7B" transform="translate(190,201)"/>
<path d="M0 0 C0 4.62 0 9.24 0 14 C-0.66 13.01 -1.32 12.02 -2 11 C-2.99 11 -3.98 11 -5 11 C-6.6875 9 -6.6875 9 -8 7 C-6.13932792 2.84926997 -4.83061881 0 0 0 Z " fill="#FBEAE4" transform="translate(190,202)"/>
<path d="M0 0 C8.39001357 1.29523251 16.08853669 4.0132516 24 7 C24 8.65 24 10.3 24 12 C23.67 10.68 23.34 9.36 23 8 C22.34515625 7.90203125 21.6903125 7.8040625 21.015625 7.703125 C13.72176334 6.50808552 6.94903646 4.49825744 0 2 C0 1.34 0 0.68 0 0 Z " fill="#FDD4C2" transform="translate(103,160)"/>
<path d="M0 0 C0 0.66 0 1.32 0 2 C-0.99 2.66 -1.98 3.32 -3 4 C-3.5 7 -3.5 7 -3 10 C-2.01 10.66 -1.02 11.32 0 12 C0 12.99 0 13.98 0 15 C-2.375 14.75 -2.375 14.75 -5 14 C-7.40989605 10.90156222 -7.39707259 7.81189683 -7 4 C-4.94946079 0.10397549 -4.61657431 0 0 0 Z " fill="#FECCBD" transform="translate(42,134)"/>
<path d="M0 0 C3.53571429 0.53571429 3.53571429 0.53571429 5 2 C5.04080783 3.99958364 5.04254356 6.00045254 5 8 C2.625 8.625 2.625 8.625 0 9 C-2 7 -2 7 -2.25 4.5 C-2 2 -2 2 0 0 Z " fill="#FCECE5" transform="translate(85,204)"/>
<path d="M0 0 C9.6956332 1.56381181 18.74926403 4.79549669 28 8 C28 8.33 28 8.66 28 9 C21.43944596 8.46859512 15.71095737 7.20651426 9.5 5.0625 C8.28570312 4.66514648 8.28570312 4.66514648 7.046875 4.25976562 C1.12960626 2.25921252 1.12960626 2.25921252 0 0 Z " fill="#FED5C3" transform="translate(66,149)"/>
<path d="M0 0 C7.6700283 0.4302337 14.65896942 1.74231361 22 4 C22 4.66 22 5.32 22 6 C14.27987432 5.07835578 7.14673903 4.14456517 0 1 C0 0.67 0 0.34 0 0 Z " fill="#FED5C2" transform="translate(78,100)"/>
<path d="M0 0 C0.99 0 1.98 0 3 0 C2.33583525 3.71390087 1.36693188 7.18786979 0.125 10.75 C-0.20242187 11.71421875 -0.52984375 12.6784375 -0.8671875 13.671875 C-1.24101562 14.44015625 -1.61484375 15.2084375 -2 16 C-2.99 16.33 -3.98 16.66 -5 17 C-3.83348574 11.07136283 -2.24480642 5.61201606 0 0 Z " fill="#FECEBF" transform="translate(158,47)"/>
<path d="M0 0 C2.125 0.375 2.125 0.375 4 1 C4 3.31 4 5.62 4 8 C2.34385343 8.38218767 0.67542976 8.71395102 -1 9 C-2 8 -2 8 -2.1875 5.0625 C-2 2 -2 2 0 0 Z " fill="#FDF0EA" transform="translate(147,204)"/>
<path d="M0 0 C1.65 1.65 3.3 3.3 5 5 C3.7260411 7.03833424 2.38938077 9.03852126 1 11 C-1 11 -1 11 -3.125 9.125 C-5 7 -5 7 -5 5 C-3.37446717 3.29319053 -1.70884005 1.62339805 0 0 Z " fill="#FDCF9F" transform="translate(214,102)"/>
<path d="M0 0 C0.99 0 1.98 0 3 0 C3.33 2.64 3.66 5.28 4 8 C4.99 8.33 5.98 8.66 7 9 C7 9.99 7 10.98 7 12 C5.00045254 12.04254356 2.99958364 12.04080783 1 12 C0 11 0 11 -0.09765625 8.49609375 C-0.08605469 7.48675781 -0.07445312 6.47742188 -0.0625 5.4375 C-0.05347656 4.42558594 -0.04445312 3.41367188 -0.03515625 2.37109375 C-0.02355469 1.58863281 -0.01195312 0.80617187 0 0 Z " fill="#DF8776" transform="translate(54,204)"/>
<path d="M0 0 C5.0437383 -0.21462716 9.21553419 0.40088905 14.08203125 1.7578125 C14.71496094 1.83773437 15.34789062 1.91765625 16 2 C16.66 1.34 17.32 0.68 18 0 C18 2.64 18 5.28 18 8 C17.67 7.01 17.34 6.02 17 5 C16.030625 4.87625 15.06125 4.7525 14.0625 4.625 C11.06420868 4.18966527 8.0941891 3.66583923 5.125 3.0625 C4.36445312 2.90910156 3.60390625 2.75570312 2.8203125 2.59765625 C1.91925781 2.30181641 1.91925781 2.30181641 1 2 C0.67 1.34 0.34 0.68 0 0 Z " fill="#FBD2C0" transform="translate(114,108)"/>
<path d="M0 0 C-0.33 0.7425 -0.66 1.485 -1 2.25 C-2.39856506 6.09605393 -2.0984782 9.1553263 -1 13 C-3.88437779 11.70700306 -5.87219421 10.34058637 -8 8 C-6.48291727 4.46014029 -4.24676932 0 0 0 Z " fill="#FECFC0" transform="translate(79,39)"/>
<path d="M0 0 C5.61 1.98 11.22 3.96 17 6 C17 6.66 17 7.32 17 8 C14.65479276 7.70684909 12.33240796 7.37633599 10 7 C8.92298828 6.83371094 8.92298828 6.83371094 7.82421875 6.6640625 C5.6875 6.25 5.6875 6.25 2 5 C1.34 3.35 0.68 1.7 0 0 Z " fill="#FCD4C2" transform="translate(61,153)"/>
<path d="M0 0 C0.99 0 1.98 0 3 0 C2.52372025 1.95903745 2.04388577 3.91721097 1.5625 5.875 C1.29566406 6.96554688 1.02882813 8.05609375 0.75390625 9.1796875 C0 12 0 12 -1 14 C-1.66 14 -2.32 14 -3 14 C-2.58846263 9.02906176 -2.20399168 4.55491614 0 0 Z " fill="#FECEBF" transform="translate(84,39)"/>
<path d="M0 0 C0.763125 0.20625 1.52625 0.4125 2.3125 0.625 C2.3125 1.615 2.3125 2.605 2.3125 3.625 C0.3325 3.625 -1.6475 3.625 -3.6875 3.625 C-3.6875 4.615 -3.6875 5.605 -3.6875 6.625 C-4.6775 6.625 -5.6675 6.625 -6.6875 6.625 C-6.375 4.25 -6.375 4.25 -5.6875 1.625 C-2.6875 -0.375 -2.6875 -0.375 0 0 Z " fill="#EDB8AD" transform="translate(165.6875,204.375)"/>
<path d="M0 0 C1.32 0 2.64 0 4 0 C4.33 1.32 4.66 2.64 5 4 C3.68 3.34 2.36 2.68 1 2 C1.309375 2.7425 1.61875 3.485 1.9375 4.25 C2.8094925 6.50692176 3.47667007 8.6450153 4 11 C2.02 9.35 0.04 7.7 -2 6 C-1.125 1.125 -1.125 1.125 0 0 Z " fill="#EB9980" transform="translate(204,140)"/>
<path d="M0 0 C1.1446875 0.2784375 1.1446875 0.2784375 2.3125 0.5625 C5.08967375 1.22819173 5.08967375 1.22819173 8 0 C7.43628586 3.26954202 6.50037734 4.82575883 4 7 C2 5.75 2 5.75 0 4 C0 2.68 0 1.36 0 0 Z " fill="#FCCDBF" transform="translate(205,142)"/>
<path d="M0 0 C0.99 0.33 1.98 0.66 3 1 C2.67 1.99 2.34 2.98 2 4 C1.93334624 5.39439664 1.91461801 6.79169875 1.9375 8.1875 C1.958125 9.445625 1.97875 10.70375 2 12 C1.01 11.67 0.02 11.34 -1 11 C-2.23076923 4.6 -2.23076923 4.6 -1.0625 1.5625 C-0.711875 1.046875 -0.36125 0.53125 0 0 Z " fill="#E08E7E" transform="translate(112,130)"/>
<path d="M0 0 C0.99 0 1.98 0 3 0 C2.67 3.63 2.34 7.26 2 11 C1.34 11 0.68 11 0 11 C-1.49297212 8.01405576 -1.11755228 5.29146376 -1 2 C-0.67 1.34 -0.34 0.68 0 0 Z " fill="#DF8C7D" transform="translate(118,133)"/>
<path d="M0 0 C7.75 -0.125 7.75 -0.125 10 1 C9.67 2.32 9.34 3.64 9 5 C5.625 4.75 5.625 4.75 2 4 C0.5625 1.9375 0.5625 1.9375 0 0 Z " fill="#E29384" transform="translate(121,195)"/>
<path d="M0 0 C5.42039575 -0.40652968 9.07015675 0.96006486 14 3 C14 3.66 14 4.32 14 5 C12.41532272 4.71572583 10.8322943 4.42225182 9.25 4.125 C7.92742187 3.88136719 7.92742187 3.88136719 6.578125 3.6328125 C4.13052256 3.03203736 2.19400143 2.22002883 0 1 C0 0.67 0 0.34 0 0 Z " fill="#FED6C3" transform="translate(113,171)"/>
<path d="M0 0 C1.98 0 3.96 0 6 0 C6 1.32 6 2.64 6 4 C3.69 4 1.38 4 -1 4 C-0.67 2.68 -0.34 1.36 0 0 Z " fill="#FED4C6" transform="translate(203,118)"/>
<path d="M0 0 C2.875 0.3125 2.875 0.3125 6 1 C6.66 1.99 7.32 2.98 8 4 C7.01 5.32 6.02 6.64 5 8 C2 4.375 2 4.375 2 1 C1.34 0.67 0.68 0.34 0 0 Z " fill="#E08978" transform="translate(41,204)"/>
<path d="M0 0 C0.66 0 1.32 0 2 0 C2.33 4.29 2.66 8.58 3 13 C0 10 0 10 -0.29296875 7.51953125 C-0.25816406 6.62621094 -0.22335938 5.73289062 -0.1875 4.8125 C-0.16042969 3.91144531 -0.13335937 3.01039062 -0.10546875 2.08203125 C-0.07066406 1.39496094 -0.03585938 0.70789063 0 0 Z " fill="#DC8474" transform="translate(132,108)"/>
<path d="M0 0 C1.32 0.66 2.64 1.32 4 2 C4 3.65 4 5.3 4 7 C1.03 7 -1.94 7 -5 7 C-5 6.67 -5 6.34 -5 6 C-3.02 6 -1.04 6 1 6 C0.67 4.02 0.34 2.04 0 0 Z " fill="#DD8371" transform="translate(167,202)"/>
<path d="M0 0 C2.97 0 5.94 0 9 0 C9 0.99 9 1.98 9 3 C6.36 3 3.72 3 1 3 C0.67 2.01 0.34 1.02 0 0 Z " fill="#FFD2C4" transform="translate(49,104)"/>
<path d="M0 0 C6.75 1.625 6.75 1.625 9 5 C6.36 5 3.72 5 1 5 C0.67 3.35 0.34 1.7 0 0 Z " fill="#E18B7B" transform="translate(118,211)"/>
<path d="M0 0 C3.96 0.99 3.96 0.99 8 2 C7.67 2.99 7.34 3.98 7 5 C2.545 4.01 2.545 4.01 -2 3 C-1.34 2.67 -0.68 2.34 0 2 C0 1.34 0 0.68 0 0 Z " fill="#E39585" transform="translate(111,150)"/>
<path d="M0 0 C1.258125 0.226875 2.51625 0.45375 3.8125 0.6875 C2.4925 1.0175 1.1725 1.3475 -0.1875 1.6875 C-0.1875 2.3475 -0.1875 3.0075 -0.1875 3.6875 C-2.4975 3.3575 -4.8075 3.0275 -7.1875 2.6875 C-5.15110924 -0.49436057 -3.4972064 -0.45804119 0 0 Z " fill="#E7998A" transform="translate(126.1875,119.3125)"/>
<path d="M0 0 C-0.33 0.99 -0.66 1.98 -1 3 C-3.31 3 -5.62 3 -8 3 C-8 2.01 -8 1.02 -8 0 C-4.71303767 -0.79953138 -3.28976808 -1.09658936 0 0 Z " fill="#E08979" transform="translate(209,213)"/>
<path d="M0 0 C0.33 0 0.66 0 1 0 C1.33 3.63 1.66 7.26 2 11 C1.01 11.495 1.01 11.495 0 12 C-1.1898306 9.6203388 -1.13349966 8.08514265 -1.125 5.4375 C-1.12886719 4.22900391 -1.12886719 4.22900391 -1.1328125 2.99609375 C-1 1 -1 1 0 0 Z " fill="#DD8777" transform="translate(60,117)"/>
<path d="M0 0 C0.33 0 0.66 0 1 0 C1.06058594 0.61488281 1.12117187 1.22976562 1.18359375 1.86328125 C1.26738281 2.67152344 1.35117188 3.47976562 1.4375 4.3125 C1.51871094 5.11300781 1.59992188 5.91351563 1.68359375 6.73828125 C1.95265693 9.16087179 1.95265693 9.16087179 3 12 C2.01 12.33 1.02 12.66 0 13 C-2.08995502 9.55772114 -2.08995502 9.55772114 -1.6875 7.0625 C-1.460625 6.381875 -1.23375 5.70125 -1 5 C-0.65939189 3.33480481 -0.32441604 1.66842534 0 0 Z " fill="#E2988A" transform="translate(184,89)"/>
<path d="M0 0 C4.67692308 1.47692308 4.67692308 1.47692308 6.3125 4.125 C6.539375 4.74375 6.76625 5.3625 7 6 C4.625 5.8125 4.625 5.8125 2 5 C0.6875 2.4375 0.6875 2.4375 0 0 Z " fill="#E08979" transform="translate(180,210)"/>
<path d="M0 0 C0.66 0 1.32 0 2 0 C1.625 2.9375 1.625 2.9375 1 6 C0.01 6.495 0.01 6.495 -1 7 C-1.99 6.67 -2.98 6.34 -4 6 C-2.84826645 3.53199953 -1.95216435 1.95216435 0 0 Z " fill="#E39587" transform="translate(48,208)"/>
<path d="M0 0 C-0.8125 1.9375 -0.8125 1.9375 -2 4 C-5 5 -5 5 -8 4 C-4.5 0 -4.5 0 0 0 Z " fill="#E29081" transform="translate(187,201)"/>
<path d="M0 0 C0.66 0 1.32 0 2 0 C3.35439668 2.70879335 3.06501451 5.00933268 3 8 C2.01 8 1.02 8 0 8 C0 5.36 0 2.72 0 0 Z " fill="#E19587" transform="translate(53,143)"/>
<path d="M0 0 C0.66 0 1.32 0 2 0 C3.35439668 2.70879335 3.06501451 5.00933268 3 8 C2.01 8.33 1.02 8.66 0 9 C0 6.03 0 3.06 0 0 Z " fill="#EC9F86" transform="translate(106,57)"/>
<path d="M0 0 C0.66 0.33 1.32 0.66 2 1 C1.67 3.64 1.34 6.28 1 9 C0.01 9 -0.98 9 -2 9 C-2.125 5.625 -2.125 5.625 -2 2 C-1.34 1.34 -0.68 0.68 0 0 Z " fill="#DF8575" transform="translate(199,202)"/>
<path d="M0 0 C1.32 0 2.64 0 4 0 C3.67 1.65 3.34 3.3 3 5 C2.01 5.33 1.02 5.66 0 6 C-0.38218767 4.34385343 -0.71395102 2.67542976 -1 1 C-0.67 0.67 -0.34 0.34 0 0 Z " fill="#E4988A" transform="translate(107,201)"/>
<path d="M0 0 C1.98 0.495 1.98 0.495 4 1 C3.67 2.32 3.34 3.64 3 5 C1.68 4.67 0.36 4.34 -1 4 C-0.67 2.68 -0.34 1.36 0 0 Z " fill="#E39586" transform="translate(135,194)"/>
<path d="M0 0 C0.99 0.33 1.98 0.66 3 1 C2.34 3.31 1.68 5.62 1 8 C0.896875 7.360625 0.79375 6.72125 0.6875 6.0625 C0.460625 5.381875 0.23375 4.70125 0 4 C-0.99 3.67 -1.98 3.34 -3 3 C-2 1 -2 1 0 0 Z " fill="#E49788" transform="translate(144,203)"/>
<path d="M0 0 C1.32 0 2.64 0 4 0 C3.67 0.99 3.34 1.98 3 3 C-0.5625 4.1875 -0.5625 4.1875 -4 5 C-2.25 2.5 -2.25 2.5 0 0 Z " fill="#E29283" transform="translate(220,201)"/>
<path d="M0 0 C0 0.66 0 1.32 0 2 C-3.13498292 3.85776765 -5.37471432 4.20140476 -9 4 C-8 2 -8 2 -5.625 0.875 C-3 0 -3 0 0 0 Z " fill="#DD8878" transform="translate(142,180)"/>
<path d="M0 0 C3.6875 0.3125 3.6875 0.3125 7 1 C6.67 1.99 6.34 2.98 6 4 C3.03 3.67 0.06 3.34 -3 3 C-2.01 2.01 -1.02 1.02 0 0 Z " fill="#E6A092" transform="translate(154,73)"/>
<path d="M0 0 C1.32 1.32 2.64 2.64 4 4 C2.68 4.99 1.36 5.98 0 7 C-0.66 5.35 -1.32 3.7 -2 2 C-1.34 2 -0.68 2 0 2 C0 1.34 0 0.68 0 0 Z " fill="#FDCE9A" transform="translate(128,56)"/>
<path d="M0 0 C2.64 0.33 5.28 0.66 8 1 C7.67 1.66 7.34 2.32 7 3 C4.69 2.67 2.38 2.34 0 2 C0 1.34 0 0.68 0 0 Z " fill="#DE8A7A" transform="translate(124,148)"/>
<path d="M0 0 C-0.33 0.99 -0.66 1.98 -1 3 C-2.98 3.33 -4.96 3.66 -7 4 C-7 3.34 -7 2.68 -7 2 C-4.35261084 0.5393715 -3.10551666 0 0 0 Z " fill="#FED7C5" transform="translate(143,138)"/>
<path d="M0 0 C2.97 0.495 2.97 0.495 6 1 C5.01 1.495 5.01 1.495 4 2 C4 2.66 4 3.32 4 4 C1.69 3.67 -0.62 3.34 -3 3 C-2.01 2.67 -1.02 2.34 0 2 C0 1.34 0 0.68 0 0 Z " fill="#E49587" transform="translate(125,128)"/>
<path d="M0 0 C0.33 0 0.66 0 1 0 C0.67 2.31 0.34 4.62 0 7 C-1.32 7.33 -2.64 7.66 -4 8 C-2.25 2.25 -2.25 2.25 0 0 Z " fill="#E49889" transform="translate(74,63)"/>
<path d="M0 0 C0.99 0.33 1.98 0.66 3 1 C2.67 2.32 2.34 3.64 2 5 C1.01 5 0.02 5 -1 5 C-0.67 3.35 -0.34 1.7 0 0 Z " fill="#E29081" transform="translate(191,194)"/>
<path d="M0 0 C1.32 0 2.64 0 4 0 C3.67 1.32 3.34 2.64 3 4 C0.69 3.67 -1.62 3.34 -4 3 C-2.68 2.67 -1.36 2.34 0 2 C0 1.34 0 0.68 0 0 Z " fill="#E39788" transform="translate(45,196)"/>
<path d="M0 0 C-2.59482129 2.59482129 -4.39883625 2.69990302 -8 3 C-8.66 2.34 -9.32 1.68 -10 1 C-6.78548731 -0.60725635 -3.56387464 -0.05748185 0 0 Z " fill="#E18D7E" transform="translate(47,195)"/>
</svg>
